<svg width="2990" height="1996" xmlns="http://www.w3.org/2000/svg" xmlns:xlink="http://www.w3.org/1999/xlink" xml:space="preserve" overflow="hidden"><defs><clipPath id="clip0"><rect x="2493" y="53" width="2990" height="1996"/></clipPath><clipPath id="clip1"><rect x="2494" y="54" width="2987" height="1993"/></clipPath><clipPath id="clip2"><rect x="2494" y="54" width="2987" height="1993"/></clipPath><clipPath id="clip3"><rect x="3157" y="104" width="2230" height="1771"/></clipPath><clipPath id="clip4"><rect x="3157" y="104" width="2230" height="1771"/></clipPath><clipPath id="clip5"><rect x="2494" y="54" width="2987" height="1993"/></clipPath><clipPath id="clip6"><rect x="2494" y="54" width="2987" height="1993"/></clipPath><clipPath id="clip7"><rect x="2494" y="54" width="2987" height="1993"/></clipPath><clipPath id="clip8"><rect x="2494" y="54" width="2987" height="1993"/></clipPath><clipPath id="clip9"><rect x="2494" y="54" width="2987" height="1993"/></clipPath><clipPath id="clip10"><rect x="2494" y="54" width="2987" height="1993"/></clipPath><clipPath id="clip11"><rect x="2494" y="54" width="2987" height="1993"/></clipPath><clipPath id="clip12"><rect x="2494" y="54" width="2987" height="1993"/></clipPath><clipPath id="clip13"><rect x="2494" y="54" width="2987" height="1993"/></clipPath><clipPath id="clip14"><rect x="2494" y="54" width="2987" height="1993"/></clipPath><clipPath id="clip15"><rect x="2494" y="54" width="2987" height="1993"/></clipPath><clipPath id="clip16"><rect x="2494" y="54" width="2987" height="1993"/></clipPath><clipPath id="clip17"><rect x="2494" y="54" width="2987" height="1993"/></clipPath><clipPath id="clip18"><rect x="2494" y="54" width="2987" height="1993"/></clipPath><clipPath id="clip19"><rect x="2494" y="54" width="2987" height="1993"/></clipPath><clipPath id="clip20"><rect x="2494" y="54" width="2987" height="1993"/></clipPath><clipPath id="clip21"><rect x="2494" y="54" width="2987" height="1993"/></clipPath><clipPath id="clip22"><rect x="2494" y="54" width="2987" height="1993"/></clipPath><clipPath id="clip23"><rect x="2494" y="54" width="2987" height="1993"/></clipPath><clipPath id="clip24"><rect x="2494" y="54" width="2987" height="1993"/></clipPath><clipPath id="clip25"><rect x="2494" y="54" width="2987" height="1993"/></clipPath><clipPath id="clip26"><rect x="2494" y="54" width="2987" height="1993"/></clipPath><clipPath id="clip27"><rect x="2494" y="54" width="2987" height="1993"/></clipPath><clipPath id="clip28"><rect x="2494" y="54" width="2987" height="1993"/></clipPath><clipPath id="clip29"><rect x="2494" y="54" width="2987" height="1993"/></clipPath><clipPath id="clip30"><rect x="2494" y="54" width="2987" height="1993"/></clipPath><clipPath id="clip31"><rect x="2494" y="54" width="2987" height="1993"/></clipPath><clipPath id="clip32"><rect x="2494" y="54" width="2987" height="1993"/></clipPath><clipPath id="clip33"><rect x="2494" y="54" width="2987" height="1993"/></clipPath><clipPath id="clip34"><rect x="2494" y="54" width="2987" height="1993"/></clipPath><clipPath id="clip35"><rect x="2494" y="54" width="2987" height="1993"/></clipPath><clipPath id="clip36"><rect x="2494" y="54" width="2987" height="1993"/></clipPath><clipPath id="clip37"><rect x="2494" y="54" width="2987" height="1993"/></clipPath><clipPath id="clip38"><rect x="2494" y="54" width="2987" height="1993"/></clipPath></defs><g clip-path="url(#clip0)" transform="translate(-2493 -53)"><rect x="2494" y="54" width="2987" height="1993" fill="#FFFFFF"/><g clip-path="url(#clip1)"><path d="M3228.61 104.5 3228.61 1872.5M3299.61 104.5 3299.61 1872.5M3370.61 104.5 3370.61 1872.5M3441.61 104.5 3441.61 1872.5M3511.62 104.5 3511.62 1872.5M3582.62 104.5 3582.62 1872.5M3653.62 104.5 3653.62 1872.5M3724.62 104.5 3724.62 1872.5M3795.62 104.5 3795.62 1872.5M3866.63 104.5 3866.63 1872.5M3936.63 104.5 3936.63 1872.5M4007.63 104.5 4007.63 1872.5M4078.63 104.5 4078.63 1872.5M4149.64 104.5 4149.64 1872.5M4220.64 104.5 4220.64 1872.5M4291.64 104.5 4291.64 1872.5M4361.64 104.5 4361.64 1872.5M4432.65 104.5 4432.65 1872.5M4503.65 104.5 4503.65 1872.5M4574.65 104.5 4574.65 1872.5M4645.65 104.5 4645.65 1872.5M4716.65 104.5 4716.65 1872.5M4786.66 104.5 4786.66 1872.5M4857.66 104.5 4857.66 1872.5M4928.66 104.5 4928.66 1872.5M4999.66 104.5 4999.66 1872.5M5070.67 104.5 5070.67 1872.5M5140.67 104.5 5140.67 1872.5M5211.67 104.5 5211.67 1872.5M5353.5 104.5 5353.5 1872.5" stroke="#F2F2F2" stroke-width="3.4375" stroke-linejoin="round" stroke-miterlimit="10" fill="none"/></g><g clip-path="url(#clip2)"><path d="M3461.61 104.5 3461.61 1872.5M3764.62 104.5 3764.62 1872.5M4068.63 104.5 4068.63 1872.5M4371.64 104.5 4371.64 1872.5M4675.65 104.5 4675.65 1872.5M4979.66 104.5 4979.66 1872.5M5282.5 104.5 5282.5 1872.5" stroke="#D9D9D9" stroke-width="3.4375" stroke-linejoin="round" stroke-miterlimit="10" fill="none"/></g><g clip-path="url(#clip3)"><path d="M3178.1 128.004 3158 128.004 3158 159.005 3178.1 159.005ZM3350.11 205.007 3158 205.007 3158 235.008 3350.11 235.008ZM3724.12 282.009 3158 282.009 3158 312.01 3724.12 312.01ZM3512.12 358.012 3158 358.012 3158 389.013 3512.12 389.013ZM3512.12 435.014 3158 435.014 3158 466.015 3512.12 466.015ZM3583.12 512.017 3158 512.017 3158 543.018 3583.12 543.018ZM3583.12 589.019 3158 589.019 3158 620.02 3583.12 620.02ZM3694.12 666.022 3158 666.022 3158 697.023 3694.12 697.023ZM3775.12 743.024 3158 743.024 3158 773.025 3775.12 773.025ZM3937.13 820.027 3158 820.027 3158 850.028 3937.13 850.028ZM4129.14 896.029 3158 896.029 3158 927.03 4129.14 927.03ZM4200.14 973.032 3158 973.032 3158 1004.03 4200.14 1004.03ZM4372.14 1050.03 3158 1050.03 3158 1081.04 4372.14 1081.04ZM4524.15 1127.04 3158 1127.04 3158 1158.04 4524.15 1158.04ZM4544.15 1204.04 3158 1204.04 3158 1234.04 4544.15 1234.04ZM4615.15 1281.04 3158 1281.04 3158 1311.04 4615.15 1311.04ZM4645.15 1357.04 3158 1357.04 3158 1388.05 4645.15 1388.05ZM4655.15 1434.05 3158 1434.05 3158 1465.05 4655.15 1465.05ZM4716.15 1511.05 3158 1511.05 3158 1542.05 4716.15 1542.05ZM4848.16 1588.05 3158 1588.05 3158 1619.05 4848.16 1619.05ZM5151.17 1665.05 3158 1665.05 3158 1696.06 5151.17 1696.06ZM5313.17 1742.06 3158 1742.06 3158 1772.06 5313.17 1772.06ZM5333.17 1819.06 3158 1819.06 3158 1849.06 5333.17 1849.06Z" fill="#D9D9D9"/></g><g clip-path="url(#clip4)"><path d="M3451.11 128.004 3178.1 128.004 3178.1 159.005 3451.11 159.005ZM3492.11 205.007 3350.11 205.007 3350.11 235.008 3492.11 235.008ZM3735.12 282.009 3724.12 282.009 3724.12 312.01 3735.12 312.01ZM4858.16 358.012 3512.12 358.012 3512.12 389.013 4858.16 389.013ZM3654.12 435.014 3512.12 435.014 3512.12 466.015 3654.12 466.015ZM3724.12 512.017 3583.12 512.017 3583.12 543.018 3724.12 543.018ZM3836.13 589.019 3583.12 589.019 3583.12 620.02 3836.13 620.02ZM3795.12 666.022 3694.12 666.022 3694.12 697.023 3795.12 697.023ZM3977.13 743.024 3775.12 743.024 3775.12 773.025 3977.13 773.025ZM4139.14 820.027 3937.13 820.027 3937.13 850.028 4139.14 850.028ZM4271.14 896.029 4129.14 896.029 4129.14 927.03 4271.14 927.03ZM4342.14 973.032 4200.14 973.032 4200.14 1004.03 4342.14 1004.03ZM4514.15 1050.03 4372.14 1050.03 4372.14 1081.04 4514.15 1081.04ZM4595.15 1127.04 4524.15 1127.04 4524.15 1158.04 4595.15 1158.04ZM4615.15 1204.04 4544.15 1204.04 4544.15 1234.04 4615.15 1234.04ZM4635.15 1281.04 4615.15 1281.04 4615.15 1311.04 4635.15 1311.04ZM4655.15 1357.04 4645.15 1357.04 4645.15 1388.05 4655.15 1388.05ZM4726.16 1434.05 4655.15 1434.05 4655.15 1465.05 4726.16 1465.05ZM4858.16 1511.05 4716.15 1511.05 4716.15 1542.05 4858.16 1542.05ZM5343.18 1588.05 4848.16 1588.05 4848.16 1619.05 5343.18 1619.05ZM5161.17 1665.05 5151.17 1665.05 5151.17 1696.06 5161.17 1696.06ZM5323.17 1742.06 5313.17 1742.06 5313.17 1772.06 5323.17 1772.06ZM5343.18 1819.06 5333.17 1819.06 5333.17 1849.06 5343.18 1849.06Z" fill="#ED7D31"/></g><g clip-path="url(#clip5)"><path d="M3157.5 104.5 5383.5 104.5" stroke="#5B9BD5" stroke-width="3.4375" stroke-linejoin="round" stroke-miterlimit="10" fill="none" fill-rule="evenodd"/></g><g clip-path="url(#clip6)"><path d="M3157.5 104.5 3157.5 114.5M3228.61 104.5 3228.61 114.5M3299.61 104.5 3299.61 114.5M3370.61 104.5 3370.61 114.5M3441.61 104.5 3441.61 114.5M3511.62 104.5 3511.62 114.5M3582.62 104.5 3582.62 114.5M3653.62 104.5 3653.62 114.5M3724.62 104.5 3724.62 114.5M3795.62 104.5 3795.62 114.5M3866.63 104.5 3866.63 114.5M3936.63 104.5 3936.63 114.5M4007.63 104.5 4007.63 114.5M4078.63 104.5 4078.63 114.5M4149.64 104.5 4149.64 114.5M4220.64 104.5 4220.64 114.5M4291.64 104.5 4291.64 114.5M4361.64 104.5 4361.64 114.5M4432.65 104.5 4432.65 114.5M4503.65 104.5 4503.65 114.5M4574.65 104.5 4574.65 114.5M4645.65 104.5 4645.65 114.5M4716.65 104.5 4716.65 114.5M4786.66 104.5 4786.66 114.5M4857.66 104.5 4857.66 114.5M4928.66 104.5 4928.66 114.5M4999.66 104.5 4999.66 114.5M5070.67 104.5 5070.67 114.5M5140.67 104.5 5140.67 114.5M5211.67 104.5 5211.67 114.5M5282.67 104.5 5282.67 114.5M5353.5 104.5 5353.5 114.5" stroke="#5B9BD5" stroke-width="3.4375" stroke-linejoin="round" stroke-miterlimit="10" fill="none"/></g><g clip-path="url(#clip7)"><path d="M3157.5 104.5 3157.5 1872.5" stroke="#D9D9D9" stroke-width="3.4375" stroke-linejoin="round" stroke-miterlimit="10" fill="none" fill-rule="evenodd"/></g><g clip-path="url(#clip8)"><text fill="#595959" font-family="Calibri,Calibri_MSFontService,sans-serif" font-weight="400" font-size="41" transform="matrix(0.927184 -0.374607 0.374607 0.927184 2984.67 2007)">2023-02-13</text></g><g clip-path="url(#clip9)"><text fill="#595959" font-family="Calibri,Calibri_MSFontService,sans-serif" font-weight="400" font-size="41" transform="matrix(0.927184 -0.374607 0.374607 0.927184 3288.22 2007)">2023-03-15</text></g><g clip-path="url(#clip10)"><text fill="#595959" font-family="Calibri,Calibri_MSFontService,sans-serif" font-weight="400" font-size="41" transform="matrix(0.927184 -0.374607 0.374607 0.927184 3591.77 2007)">2023-04-14</text></g><g clip-path="url(#clip11)"><text fill="#595959" font-family="Calibri,Calibri_MSFontService,sans-serif" font-weight="400" font-size="41" transform="matrix(0.927184 -0.374607 0.374607 0.927184 3895.32 2007)">2023-05-14</text></g><g clip-path="url(#clip12)"><text fill="#595959" font-family="Calibri,Calibri_MSFontService,sans-serif" font-weight="400" font-size="41" transform="matrix(0.927184 -0.374607 0.374607 0.927184 4198.87 2007)">2023-06-13</text></g><g clip-path="url(#clip13)"><text fill="#595959" font-family="Calibri,Calibri_MSFontService,sans-serif" font-weight="400" font-size="41" transform="matrix(0.927184 -0.374607 0.374607 0.927184 4502.42 2007)">2023-07-13</text></g><g clip-path="url(#clip14)"><text fill="#595959" font-family="Calibri,Calibri_MSFontService,sans-serif" font-weight="400" font-size="41" transform="matrix(0.927184 -0.374607 0.374607 0.927184 4805.97 2007)">2023-08-12</text></g><g clip-path="url(#clip15)"><text fill="#595959" font-family="Calibri,Calibri_MSFontService,sans-serif" font-weight="400" font-size="41" transform="matrix(0.927184 -0.374607 0.374607 0.927184 5109.52 2007)">2023-09-11</text></g><g clip-path="url(#clip16)"><text fill="#595959" font-family="Calibri,Calibri_MSFontService,sans-serif" font-weight="400" font-size="41" transform="matrix(1 0 0 1 2905.44 155)">Read-in time</text></g><g clip-path="url(#clip17)"><text fill="#595959" font-family="Calibri,Calibri_MSFontService,sans-serif" font-weight="400" font-size="41" transform="matrix(1 0 0 1 3001.55 232)">Exposé</text></g><g clip-path="url(#clip18)"><text fill="#595959" font-family="Calibri,Calibri_MSFontService,sans-serif" font-weight="400" font-size="41" transform="matrix(1 0 0 1 2917.06 309)">Registration</text></g><g clip-path="url(#clip19)"><text fill="#595959" font-family="Calibri,Calibri_MSFontService,sans-serif" font-weight="400" font-size="41" transform="matrix(1 0 0 1 2935.3 385)">Realization</text></g><g clip-path="url(#clip20)"><text fill="#595959" font-family="Calibri,Calibri_MSFontService,sans-serif" font-weight="400" font-size="41" transform="matrix(1 0 0 1 2830.14 462)">Collect Literature</text></g><g clip-path="url(#clip21)"><text fill="#595959" font-family="Calibri,Calibri_MSFontService,sans-serif" font-weight="400" font-size="41" transform="matrix(1 0 0 1 2735.72 539)">Organize Methodology</text></g><g clip-path="url(#clip22)"><text fill="#595959" font-family="Calibri,Calibri_MSFontService,sans-serif" font-weight="400" font-size="41" transform="matrix(1 0 0 1 2700.66 616)">Develop ML UI Tree Data</text></g><g clip-path="url(#clip23)"><text fill="#595959" font-family="Calibri,Calibri_MSFontService,sans-serif" font-weight="400" font-size="41" transform="matrix(1 0 0 1 2679.94 693)">Write Analysis / Literature</text></g><g clip-path="url(#clip24)"><text fill="#595959" font-family="Calibri,Calibri_MSFontService,sans-serif" font-weight="400" font-size="41" transform="matrix(1 0 0 1 2743.72 770)">Write ML UI Tree Data</text></g><g clip-path="url(#clip25)"><text fill="#595959" font-family="Calibri,Calibri_MSFontService,sans-serif" font-weight="400" font-size="41" transform="matrix(1 0 0 1 2724.67 846)">Develop App to test ML</text></g><g clip-path="url(#clip26)"><text fill="#595959" font-family="Calibri,Calibri_MSFontService,sans-serif" font-weight="400" font-size="41" transform="matrix(1 0 0 1 2910.46 923)">Experiments</text></g><g clip-path="url(#clip27)"><text fill="#595959" font-family="Calibri,Calibri_MSFontService,sans-serif" font-weight="400" font-size="41" transform="matrix(1 0 0 1 2524.2 1000)">Improve App + Restart Experiments</text></g><g clip-path="url(#clip28)"><text fill="#595959" font-family="Calibri,Calibri_MSFontService,sans-serif" font-weight="400" font-size="41" transform="matrix(1 0 0 1 2633.1 1077)">Write Results of Experiments</text></g><g clip-path="url(#clip29)"><text fill="#595959" font-family="Calibri,Calibri_MSFontService,sans-serif" font-weight="400" font-size="41" transform="matrix(1 0 0 1 2840.2 1154)">Write Discussion</text></g><g clip-path="url(#clip30)"><text fill="#595959" font-family="Calibri,Calibri_MSFontService,sans-serif" font-weight="400" font-size="41" transform="matrix(1 0 0 1 2588.27 1231)">Write Conclusion / Introduction</text></g><g clip-path="url(#clip31)"><text fill="#595959" font-family="Calibri,Calibri_MSFontService,sans-serif" font-weight="400" font-size="41" transform="matrix(1 0 0 1 2874.53 1308)">Write Abstract</text></g><g clip-path="url(#clip32)"><text fill="#595959" font-family="Calibri,Calibri_MSFontService,sans-serif" font-weight="400" font-size="41" transform="matrix(1 0 0 1 2788.24 1384)">Submit Raw version</text></g><g clip-path="url(#clip33)"><text fill="#595959" font-family="Calibri,Calibri_MSFontService,sans-serif" font-weight="400" font-size="41" transform="matrix(1 0 0 1 2730.52 1461)">Submit Revised version</text></g><g clip-path="url(#clip34)"><text fill="#595959" font-family="Calibri,Calibri_MSFontService,sans-serif" font-weight="400" font-size="41" transform="matrix(1 0 0 1 2841.14 1538)">Final Submission</text></g><g clip-path="url(#clip35)"><text fill="#595959" font-family="Calibri,Calibri_MSFontService,sans-serif" font-weight="400" font-size="41" transform="matrix(1 0 0 1 2783.13 1615)">Prepare Disputation</text></g><g clip-path="url(#clip36)"><text fill="#595959" font-family="Calibri,Calibri_MSFontService,sans-serif" font-weight="400" font-size="41" transform="matrix(1 0 0 1 2819.5 1692)">Slides Disputation</text></g><g clip-path="url(#clip37)"><text fill="#595959" font-family="Calibri,Calibri_MSFontService,sans-serif" font-weight="400" font-size="41" transform="matrix(1 0 0 1 2730.47 1769)">Rehearsal presentation</text></g><g clip-path="url(#clip38)"><text fill="#595959" font-family="Calibri,Calibri_MSFontService,sans-serif" font-weight="400" font-size="41" transform="matrix(1 0 0 1 2925.06 1845)">Disputation</text></g><rect x="2494.5" y="54.5002" width="2987" height="1993" stroke="#D9D9D9" stroke-width="3.4375" stroke-linejoin="round" stroke-miterlimit="10" fill="none"/></g></svg>