<?xml version="1.0" encoding="utf-8"?>
<!-- Generator: Adobe Illustrator 16.0.3, SVG Export Plug-In . SVG Version: 6.00 Build 0)  -->
<!DOCTYPE svg PUBLIC "-//W3C//DTD SVG 1.1//EN" "http://www.w3.org/Graphics/SVG/1.1/DTD/svg11.dtd">
<svg version="1.1" id="Ebene_1" xmlns="http://www.w3.org/2000/svg" xmlns:xlink="http://www.w3.org/1999/xlink" x="0px" y="0px"
	 width="440.166px" height="279.5px" viewBox="0 0 440.166 279.5" enable-background="new 0 0 440.166 279.5" xml:space="preserve">
<g>
	<g>
		<line fill="none" stroke="#000000" stroke-miterlimit="10" x1="92.333" y1="135.861" x2="116.609" y2="135.861"/>
		<g>
			<path d="M120.833,135.861c-1.988,0.737-4.454,1.996-5.983,3.329l1.205-3.329l-1.205-3.328
				C116.379,133.866,118.846,135.124,120.833,135.861z"/>
		</g>
	</g>
</g>
<g>
	<g>
		<line fill="none" stroke="#000000" stroke-miterlimit="10" x1="92.333" y1="51.79" x2="117.738" y2="77.194"/>
		<g>
			<path d="M120.725,80.182c-1.927-0.884-4.561-1.738-6.585-1.877l3.206-1.502l1.502-3.205
				C118.986,75.621,119.84,78.255,120.725,80.182z"/>
		</g>
	</g>
</g>
<g>
	<g>
		<line fill="none" stroke="#000000" stroke-miterlimit="10" x1="344.887" y1="224.816" x2="383.885" y2="224.816"/>
		<g>
			<path d="M388.11,224.816c-1.988,0.737-4.454,1.996-5.983,3.329l1.204-3.329l-1.204-3.328
				C383.656,222.821,386.122,224.079,388.11,224.816z"/>
		</g>
	</g>
</g>
<g>
	<g>
		<line fill="none" stroke="#000000" stroke-miterlimit="10" x1="261.333" y1="135.861" x2="285.609" y2="135.861"/>
		<g>
			<path d="M289.833,135.861c-1.988,0.737-4.454,1.996-5.983,3.329l1.204-3.329l-1.204-3.328
				C285.379,133.866,287.845,135.124,289.833,135.861z"/>
		</g>
	</g>
</g>
<rect y="100.361" fill="#DADADA" width="92.333" height="71.001"/>
<rect x="289.833" y="100.361" fill="#DADADA" width="150.332" height="71.001"/>
<g>
	<path d="M20.241,123.257c0.468,0.288,1.151,0.528,1.871,0.528c1.067,0,1.691-0.564,1.691-1.38c0-0.755-0.432-1.187-1.523-1.606
		c-1.319-0.469-2.135-1.152-2.135-2.291c0-1.26,1.043-2.195,2.614-2.195c0.828,0,1.427,0.192,1.787,0.396l-0.288,0.852
		c-0.264-0.145-0.803-0.385-1.535-0.385c-1.103,0-1.523,0.66-1.523,1.212c0,0.755,0.492,1.128,1.607,1.56
		c1.367,0.527,2.063,1.188,2.063,2.374c0,1.247-0.923,2.327-2.831,2.327c-0.779,0-1.631-0.229-2.063-0.516L20.241,123.257z"/>
	<path d="M26.924,121.818c0.024,1.427,0.936,2.014,1.991,2.014c0.755,0,1.211-0.131,1.607-0.299l0.18,0.756
		c-0.372,0.168-1.007,0.359-1.931,0.359c-1.787,0-2.854-1.176-2.854-2.927s1.032-3.13,2.723-3.13c1.895,0,2.399,1.667,2.399,2.734
		c0,0.216-0.024,0.384-0.036,0.492H26.924z M30.019,121.063c0.012-0.672-0.276-1.715-1.463-1.715c-1.067,0-1.535,0.982-1.619,1.715
		H30.019z"/>
	<path d="M36.306,123.629h-0.024c-0.312,0.576-0.959,1.031-1.895,1.031c-1.355,0-2.459-1.176-2.459-2.938
		c0-2.171,1.403-3.13,2.627-3.13c0.899,0,1.499,0.443,1.787,1.008h0.024l0.036-0.876h0.996c-0.024,0.491-0.036,0.995-0.036,1.595
		v6.584h-1.055V123.629z M36.306,121.074c0-0.145-0.012-0.313-0.048-0.443c-0.156-0.648-0.719-1.199-1.511-1.199
		c-1.092,0-1.751,0.923-1.751,2.23c0,1.151,0.552,2.158,1.715,2.158c0.684,0,1.271-0.42,1.511-1.15
		c0.048-0.145,0.084-0.349,0.084-0.504V121.074z"/>
	<path d="M43.961,122.945c0,0.6,0.012,1.127,0.048,1.583h-0.936l-0.06-0.947H42.99c-0.276,0.468-0.887,1.079-1.919,1.079
		c-0.911,0-2.003-0.504-2.003-2.543v-3.394h1.056v3.214c0,1.104,0.336,1.848,1.295,1.848c0.708,0,1.199-0.492,1.391-0.96
		c0.06-0.155,0.096-0.348,0.096-0.54v-3.562h1.056V122.945z"/>
	<path d="M46.304,121.818c0.024,1.427,0.935,2.014,1.991,2.014c0.755,0,1.211-0.131,1.607-0.299l0.18,0.756
		c-0.372,0.168-1.007,0.359-1.931,0.359c-1.787,0-2.854-1.176-2.854-2.927s1.032-3.13,2.723-3.13c1.895,0,2.399,1.667,2.399,2.734
		c0,0.216-0.024,0.384-0.036,0.492H46.304z M49.398,121.063c0.012-0.672-0.276-1.715-1.463-1.715c-1.067,0-1.535,0.982-1.619,1.715
		H49.398z"/>
	<path d="M51.728,120.295c0-0.6-0.012-1.092-0.048-1.571h0.936l0.06,0.96h0.024c0.288-0.553,0.959-1.092,1.919-1.092
		c0.803,0,2.051,0.479,2.051,2.471v3.466h-1.056v-3.347c0-0.936-0.348-1.715-1.343-1.715c-0.695,0-1.235,0.492-1.415,1.08
		c-0.048,0.131-0.072,0.312-0.072,0.491v3.49h-1.056V120.295z"/>
	<path d="M59.611,117.057v1.667h1.511v0.804h-1.511v3.13c0,0.72,0.204,1.128,0.792,1.128c0.276,0,0.479-0.037,0.612-0.072
		l0.048,0.791c-0.204,0.084-0.528,0.145-0.936,0.145c-0.492,0-0.888-0.156-1.14-0.443c-0.3-0.313-0.408-0.828-0.408-1.512v-3.166
		H57.68v-0.804h0.899v-1.392L59.611,117.057z"/>
	<path d="M63.486,117.092c0.012,0.36-0.252,0.648-0.671,0.648c-0.372,0-0.636-0.288-0.636-0.648c0-0.371,0.276-0.659,0.66-0.659
		C63.234,116.433,63.486,116.721,63.486,117.092z M62.311,124.528v-5.805h1.056v5.805H62.311z"/>
	<path d="M68.333,124.528l-0.084-0.731h-0.036c-0.324,0.455-0.947,0.863-1.775,0.863c-1.175,0-1.775-0.828-1.775-1.667
		c0-1.403,1.247-2.171,3.49-2.159v-0.119c0-0.48-0.132-1.344-1.319-1.344c-0.54,0-1.104,0.168-1.511,0.432l-0.24-0.695
		c0.48-0.313,1.175-0.516,1.907-0.516c1.775,0,2.207,1.211,2.207,2.375v2.17c0,0.504,0.024,0.996,0.096,1.392H68.333z
		 M68.177,121.566c-1.151-0.024-2.458,0.18-2.458,1.307c0,0.684,0.456,1.008,0.996,1.008c0.755,0,1.235-0.48,1.403-0.972
		c0.036-0.108,0.06-0.228,0.06-0.336V121.566z"/>
	<path d="M70.903,116.014h1.056v8.515h-1.056V116.014z"/>
	<path d="M20.173,136.386l-0.839,2.543h-1.08l2.747-8.084h1.259l2.758,8.084h-1.115l-0.864-2.543H20.173z M22.824,135.57
		l-0.792-2.326c-0.18-0.528-0.3-1.008-0.419-1.476h-0.024c-0.12,0.479-0.251,0.972-0.408,1.463l-0.792,2.339H22.824z"/>
	<path d="M26.138,134.695c0-0.6-0.012-1.092-0.048-1.571h0.936l0.06,0.959h0.024c0.288-0.552,0.959-1.091,1.919-1.091
		c0.803,0,2.051,0.479,2.051,2.471v3.466h-1.056v-3.346c0-0.936-0.348-1.716-1.343-1.716c-0.695,0-1.235,0.492-1.415,1.08
		c-0.048,0.132-0.072,0.312-0.072,0.491v3.49h-1.056V134.695z"/>
	<path d="M37.811,130.414v7.016c0,0.516,0.012,1.104,0.048,1.499h-0.947l-0.048-1.008H36.84c-0.324,0.648-1.032,1.14-1.979,1.14
		c-1.403,0-2.483-1.188-2.483-2.95c-0.012-1.931,1.188-3.118,2.603-3.118c0.888,0,1.487,0.42,1.751,0.888h0.024v-3.466H37.811z
		 M36.756,135.486c0-0.132-0.012-0.312-0.048-0.443c-0.156-0.672-0.731-1.224-1.523-1.224c-1.091,0-1.739,0.96-1.739,2.243
		c0,1.175,0.576,2.146,1.715,2.146c0.708,0,1.355-0.468,1.547-1.259c0.036-0.145,0.048-0.288,0.048-0.456V135.486z"/>
	<path d="M39.566,134.935c0-0.684-0.012-1.271-0.048-1.811h0.923l0.036,1.14h0.048c0.264-0.78,0.899-1.271,1.607-1.271
		c0.12,0,0.204,0.012,0.3,0.036v0.995c-0.108-0.024-0.216-0.036-0.36-0.036c-0.744,0-1.271,0.563-1.416,1.355
		c-0.024,0.144-0.048,0.312-0.048,0.491v3.095h-1.043V134.935z"/>
	<path d="M48.623,135.979c0,2.146-1.487,3.082-2.89,3.082c-1.571,0-2.783-1.151-2.783-2.986c0-1.942,1.271-3.082,2.878-3.082
		C47.496,132.992,48.623,134.203,48.623,135.979z M44.018,136.038c0,1.271,0.732,2.231,1.763,2.231c1.007,0,1.763-0.948,1.763-2.255
		c0-0.983-0.492-2.231-1.739-2.231C44.558,133.783,44.018,134.935,44.018,136.038z"/>
	<path d="M51.133,131.493c0.012,0.359-0.252,0.647-0.671,0.647c-0.372,0-0.636-0.288-0.636-0.647c0-0.372,0.276-0.66,0.66-0.66
		C50.881,130.833,51.133,131.121,51.133,131.493z M49.958,138.929v-5.805h1.056v5.805H49.958z"/>
	<path d="M57.779,130.414v7.016c0,0.516,0.012,1.104,0.048,1.499H56.88l-0.048-1.008h-0.024c-0.324,0.648-1.032,1.14-1.979,1.14
		c-1.403,0-2.483-1.188-2.483-2.95c-0.012-1.931,1.188-3.118,2.603-3.118c0.888,0,1.487,0.42,1.751,0.888h0.024v-3.466H57.779z
		 M56.724,135.486c0-0.132-0.012-0.312-0.048-0.443c-0.156-0.672-0.731-1.224-1.523-1.224c-1.091,0-1.739,0.96-1.739,2.243
		c0,1.175,0.576,2.146,1.715,2.146c0.708,0,1.355-0.468,1.547-1.259c0.036-0.145,0.048-0.288,0.048-0.456V135.486z"/>
	<path d="M63.158,130.845v4.786c0,1.811,0.803,2.578,1.883,2.578c1.199,0,1.967-0.791,1.967-2.578v-4.786h1.056v4.714
		c0,2.482-1.308,3.502-3.059,3.502c-1.655,0-2.902-0.947-2.902-3.454v-4.762H63.158z"/>
	<path d="M70.921,130.845v8.084h-1.043v-8.084H70.921z"/>
	<path d="M24.974,146.132h-2.459v-0.888H28.5v0.888h-2.471v7.196h-1.055V146.132z"/>
	<path d="M28.826,149.334c0-0.684-0.012-1.271-0.048-1.811h0.923l0.036,1.14h0.048c0.264-0.78,0.899-1.271,1.607-1.271
		c0.12,0,0.204,0.012,0.3,0.036v0.995c-0.108-0.024-0.216-0.036-0.36-0.036c-0.744,0-1.271,0.563-1.416,1.355
		c-0.024,0.144-0.048,0.312-0.048,0.491v3.095h-1.043V149.334z"/>
	<path d="M33.218,150.617c0.024,1.428,0.935,2.016,1.991,2.016c0.755,0,1.211-0.132,1.607-0.3l0.18,0.755
		c-0.372,0.168-1.007,0.36-1.931,0.36c-1.787,0-2.854-1.176-2.854-2.927s1.032-3.13,2.723-3.13c1.895,0,2.399,1.667,2.399,2.734
		c0,0.216-0.024,0.384-0.036,0.491H33.218z M36.312,149.862c0.012-0.672-0.276-1.715-1.463-1.715c-1.067,0-1.535,0.983-1.619,1.715
		H36.312z"/>
	<path d="M39.229,150.617c0.024,1.428,0.935,2.016,1.991,2.016c0.755,0,1.211-0.132,1.607-0.3l0.18,0.755
		c-0.372,0.168-1.007,0.36-1.931,0.36c-1.787,0-2.854-1.176-2.854-2.927s1.032-3.13,2.723-3.13c1.895,0,2.399,1.667,2.399,2.734
		c0,0.216-0.024,0.384-0.036,0.491H39.229z M42.324,149.862c0.012-0.672-0.276-1.715-1.463-1.715c-1.067,0-1.535,0.983-1.619,1.715
		H42.324z"/>
	<path d="M47.233,145.353c0.636-0.096,1.391-0.168,2.219-0.168c1.499,0,2.566,0.348,3.274,1.008c0.72,0.659,1.14,1.595,1.14,2.902
		c0,1.319-0.408,2.398-1.164,3.142c-0.755,0.756-2.003,1.164-3.574,1.164c-0.744,0-1.367-0.036-1.895-0.097V145.353z
		 M48.277,152.501c0.264,0.048,0.647,0.06,1.055,0.06c2.231,0,3.442-1.247,3.442-3.43c0.012-1.907-1.067-3.119-3.274-3.119
		c-0.54,0-0.947,0.049-1.223,0.108V152.501z"/>
	<path d="M58.404,153.328l-0.084-0.731h-0.036c-0.324,0.456-0.947,0.863-1.775,0.863c-1.175,0-1.775-0.827-1.775-1.667
		c0-1.403,1.247-2.171,3.49-2.159v-0.119c0-0.48-0.132-1.344-1.319-1.344c-0.54,0-1.104,0.168-1.511,0.432l-0.24-0.695
		c0.48-0.312,1.175-0.516,1.907-0.516c1.775,0,2.207,1.211,2.207,2.374v2.171c0,0.504,0.024,0.996,0.096,1.392H58.404z
		 M58.248,150.366c-1.151-0.024-2.458,0.18-2.458,1.307c0,0.684,0.456,1.008,0.996,1.008c0.755,0,1.235-0.479,1.403-0.972
		c0.036-0.108,0.06-0.228,0.06-0.336V150.366z"/>
	<path d="M62.196,145.856v1.667h1.511v0.804h-1.511v3.13c0,0.72,0.204,1.128,0.792,1.128c0.276,0,0.479-0.036,0.611-0.072
		l0.048,0.791c-0.204,0.084-0.528,0.145-0.936,0.145c-0.492,0-0.888-0.156-1.14-0.444c-0.3-0.312-0.408-0.827-0.408-1.511v-3.166
		h-0.899v-0.804h0.899v-1.392L62.196,145.856z"/>
	<path d="M68.111,153.328l-0.084-0.731h-0.036c-0.324,0.456-0.947,0.863-1.775,0.863c-1.175,0-1.775-0.827-1.775-1.667
		c0-1.403,1.247-2.171,3.49-2.159v-0.119c0-0.48-0.132-1.344-1.319-1.344c-0.54,0-1.104,0.168-1.511,0.432l-0.24-0.695
		c0.48-0.312,1.175-0.516,1.907-0.516c1.775,0,2.207,1.211,2.207,2.374v2.171c0,0.504,0.024,0.996,0.096,1.392H68.111z
		 M67.955,150.366c-1.151-0.024-2.458,0.18-2.458,1.307c0,0.684,0.456,1.008,0.996,1.008c0.755,0,1.235-0.479,1.403-0.972
		c0.036-0.108,0.06-0.228,0.06-0.336V150.366z"/>
</g>
<g>
	<path d="M300.769,114.257c0.467,0.288,1.15,0.528,1.871,0.528c1.066,0,1.69-0.564,1.69-1.38c0-0.755-0.432-1.187-1.522-1.606
		c-1.32-0.469-2.135-1.152-2.135-2.291c0-1.26,1.043-2.195,2.613-2.195c0.828,0,1.428,0.192,1.787,0.396l-0.287,0.852
		c-0.264-0.145-0.804-0.385-1.535-0.385c-1.104,0-1.523,0.66-1.523,1.212c0,0.755,0.492,1.128,1.607,1.56
		c1.367,0.527,2.063,1.188,2.063,2.374c0,1.247-0.924,2.327-2.83,2.327c-0.779,0-1.631-0.229-2.063-0.516L300.769,114.257z"/>
	<path d="M307.968,108.092c0.012,0.36-0.252,0.648-0.672,0.648c-0.372,0-0.636-0.288-0.636-0.648c0-0.371,0.276-0.659,0.659-0.659
		C307.716,107.433,307.968,107.721,307.968,108.092z M306.792,115.528v-5.805h1.056v5.805H306.792z"/>
	<path d="M309.601,111.295c0-0.6-0.012-1.092-0.049-1.571h0.924l0.048,0.936h0.036c0.324-0.552,0.863-1.067,1.823-1.067
		c0.792,0,1.392,0.479,1.644,1.163h0.023c0.18-0.323,0.408-0.575,0.647-0.755c0.348-0.265,0.731-0.408,1.283-0.408
		c0.768,0,1.907,0.504,1.907,2.519v3.418h-1.031v-3.286c0-1.115-0.408-1.787-1.26-1.787c-0.6,0-1.067,0.443-1.247,0.959
		c-0.048,0.145-0.084,0.336-0.084,0.528v3.586h-1.032v-3.478c0-0.924-0.407-1.596-1.211-1.596c-0.659,0-1.139,0.527-1.307,1.056
		c-0.061,0.155-0.084,0.335-0.084,0.516v3.502h-1.031V111.295z"/>
	<path d="M320.784,108.092c0.013,0.36-0.252,0.648-0.671,0.648c-0.373,0-0.637-0.288-0.637-0.648c0-0.371,0.276-0.659,0.66-0.659
		C320.532,107.433,320.784,107.721,320.784,108.092z M319.609,115.528v-5.805h1.055v5.805H319.609z"/>
	<path d="M322.417,107.014h1.056v8.515h-1.056V107.014z"/>
	<path d="M328.462,115.528l-0.084-0.731h-0.035c-0.324,0.455-0.947,0.863-1.775,0.863c-1.176,0-1.775-0.828-1.775-1.667
		c0-1.403,1.248-2.171,3.49-2.159v-0.119c0-0.48-0.132-1.344-1.318-1.344c-0.541,0-1.104,0.168-1.512,0.432l-0.24-0.695
		c0.48-0.313,1.176-0.516,1.907-0.516c1.774,0,2.206,1.211,2.206,2.375v2.17c0,0.504,0.024,0.996,0.097,1.392H328.462z
		 M328.306,112.566c-1.15-0.024-2.458,0.18-2.458,1.307c0,0.684,0.456,1.008,0.995,1.008c0.756,0,1.236-0.48,1.404-0.972
		c0.035-0.108,0.059-0.228,0.059-0.336V112.566z"/>
	<path d="M331.033,111.535c0-0.684-0.012-1.271-0.048-1.812h0.923l0.037,1.14h0.047c0.264-0.779,0.9-1.271,1.607-1.271
		c0.12,0,0.204,0.012,0.301,0.035v0.996c-0.109-0.023-0.217-0.036-0.36-0.036c-0.743,0-1.271,0.563-1.415,1.355
		c-0.024,0.144-0.049,0.312-0.049,0.491v3.095h-1.043V111.535z"/>
	<path d="M338.58,108.332h-2.459v-0.887h5.985v0.887h-2.471v7.196h-1.056V108.332z"/>
	<path d="M342.433,111.535c0-0.684-0.012-1.271-0.049-1.812h0.924l0.036,1.14h0.048c0.264-0.779,0.899-1.271,1.607-1.271
		c0.119,0,0.203,0.012,0.299,0.035v0.996c-0.107-0.023-0.215-0.036-0.359-0.036c-0.743,0-1.271,0.563-1.415,1.355
		c-0.024,0.144-0.048,0.312-0.048,0.491v3.095h-1.043V111.535z"/>
	<path d="M346.824,112.818c0.024,1.427,0.936,2.014,1.991,2.014c0.755,0,1.212-0.131,1.606-0.299l0.181,0.756
		c-0.372,0.168-1.007,0.359-1.931,0.359c-1.787,0-2.855-1.176-2.855-2.927s1.032-3.13,2.723-3.13c1.896,0,2.399,1.667,2.399,2.734
		c0,0.216-0.024,0.384-0.036,0.492H346.824z M349.918,112.063c0.012-0.672-0.276-1.715-1.464-1.715
		c-1.066,0-1.535,0.982-1.619,1.715H349.918z"/>
	<path d="M352.835,112.818c0.024,1.427,0.936,2.014,1.991,2.014c0.755,0,1.212-0.131,1.606-0.299l0.181,0.756
		c-0.372,0.168-1.007,0.359-1.931,0.359c-1.787,0-2.855-1.176-2.855-2.927s1.032-3.13,2.723-3.13c1.896,0,2.399,1.667,2.399,2.734
		c0,0.216-0.024,0.384-0.036,0.492H352.835z M355.93,112.063c0.012-0.672-0.276-1.715-1.464-1.715c-1.066,0-1.535,0.982-1.619,1.715
		H355.93z"/>
	<path d="M360.839,107.553c0.637-0.096,1.392-0.168,2.219-0.168c1.5,0,2.566,0.348,3.274,1.008c0.72,0.659,1.14,1.595,1.14,2.902
		c0,1.318-0.408,2.398-1.164,3.143c-0.755,0.755-2.002,1.162-3.573,1.162c-0.743,0-1.368-0.035-1.896-0.096V107.553z
		 M361.883,114.701c0.264,0.047,0.647,0.06,1.056,0.06c2.23,0,3.441-1.247,3.441-3.431c0.012-1.906-1.066-3.117-3.273-3.117
		c-0.54,0-0.947,0.047-1.224,0.107V114.701z"/>
	<path d="M372.009,115.528l-0.084-0.731h-0.035c-0.324,0.455-0.947,0.863-1.775,0.863c-1.176,0-1.775-0.828-1.775-1.667
		c0-1.403,1.248-2.171,3.49-2.159v-0.119c0-0.48-0.132-1.344-1.318-1.344c-0.541,0-1.104,0.168-1.512,0.432l-0.24-0.695
		c0.48-0.313,1.176-0.516,1.907-0.516c1.774,0,2.206,1.211,2.206,2.375v2.17c0,0.504,0.024,0.996,0.097,1.392H372.009z
		 M371.853,112.566c-1.15-0.024-2.458,0.18-2.458,1.307c0,0.684,0.456,1.008,0.995,1.008c0.756,0,1.236-0.48,1.404-0.972
		c0.035-0.108,0.059-0.228,0.059-0.336V112.566z"/>
	<path d="M375.802,108.057v1.667h1.512v0.804h-1.512v3.13c0,0.72,0.204,1.128,0.792,1.128c0.276,0,0.479-0.037,0.612-0.072
		l0.047,0.791c-0.203,0.084-0.527,0.145-0.936,0.145c-0.491,0-0.887-0.156-1.139-0.443c-0.301-0.313-0.408-0.828-0.408-1.512v-3.166
		h-0.899v-0.804h0.899v-1.392L375.802,108.057z"/>
	<path d="M381.717,115.528l-0.084-0.731h-0.036c-0.324,0.455-0.947,0.863-1.775,0.863c-1.175,0-1.774-0.828-1.774-1.667
		c0-1.403,1.247-2.171,3.489-2.159v-0.119c0-0.48-0.131-1.344-1.318-1.344c-0.54,0-1.104,0.168-1.512,0.432l-0.24-0.695
		c0.48-0.313,1.176-0.516,1.908-0.516c1.774,0,2.206,1.211,2.206,2.375v2.17c0,0.504,0.024,0.996,0.097,1.392H381.717z
		 M381.562,112.566c-1.152-0.024-2.459,0.18-2.459,1.307c0,0.684,0.455,1.008,0.995,1.008c0.755,0,1.235-0.48,1.403-0.972
		c0.035-0.108,0.061-0.228,0.061-0.336V112.566z"/>
	<path d="M385.943,116.008l3.347-8.695h0.815l-3.357,8.695H385.943z"/>
	<path d="M393.382,114.257c0.469,0.288,1.152,0.528,1.871,0.528c1.068,0,1.691-0.564,1.691-1.38c0-0.755-0.432-1.187-1.523-1.606
		c-1.318-0.469-2.135-1.152-2.135-2.291c0-1.26,1.043-2.195,2.615-2.195c0.827,0,1.427,0.192,1.787,0.396l-0.289,0.852
		c-0.264-0.145-0.803-0.385-1.535-0.385c-1.103,0-1.522,0.66-1.522,1.212c0,0.755,0.491,1.128,1.606,1.56
		c1.367,0.527,2.063,1.188,2.063,2.374c0,1.247-0.923,2.327-2.831,2.327c-0.779,0-1.631-0.229-2.063-0.516L393.382,114.257z"/>
	<path d="M400.066,112.818c0.024,1.427,0.936,2.014,1.991,2.014c0.755,0,1.212-0.131,1.606-0.299l0.181,0.756
		c-0.372,0.168-1.007,0.359-1.931,0.359c-1.787,0-2.855-1.176-2.855-2.927s1.032-3.13,2.723-3.13c1.896,0,2.399,1.667,2.399,2.734
		c0,0.216-0.024,0.384-0.036,0.492H400.066z M403.161,112.063c0.012-0.672-0.276-1.715-1.464-1.715
		c-1.066,0-1.535,0.982-1.619,1.715H403.161z"/>
	<path d="M405.346,114.449c0.312,0.203,0.864,0.42,1.392,0.42c0.768,0,1.127-0.385,1.127-0.863c0-0.504-0.3-0.78-1.079-1.068
		c-1.044-0.371-1.535-0.947-1.535-1.643c0-0.936,0.755-1.703,2.003-1.703c0.588,0,1.104,0.168,1.428,0.359l-0.265,0.768
		c-0.228-0.144-0.647-0.336-1.187-0.336c-0.625,0-0.973,0.36-0.973,0.792c0,0.479,0.348,0.695,1.104,0.983
		c1.008,0.384,1.523,0.888,1.523,1.751c0,1.02-0.791,1.739-2.171,1.739c-0.636,0-1.224-0.156-1.631-0.396L405.346,114.449z"/>
	<path d="M410.098,114.449c0.312,0.203,0.864,0.42,1.392,0.42c0.768,0,1.127-0.385,1.127-0.863c0-0.504-0.3-0.78-1.079-1.068
		c-1.044-0.371-1.535-0.947-1.535-1.643c0-0.936,0.755-1.703,2.003-1.703c0.588,0,1.104,0.168,1.428,0.359l-0.265,0.768
		c-0.228-0.144-0.647-0.336-1.187-0.336c-0.625,0-0.973,0.36-0.973,0.792c0,0.479,0.348,0.695,1.104,0.983
		c1.008,0.384,1.523,0.888,1.523,1.751c0,1.02-0.791,1.739-2.171,1.739c-0.636,0-1.224-0.156-1.631-0.396L410.098,114.449z"/>
	<path d="M416.169,108.092c0.012,0.36-0.252,0.648-0.672,0.648c-0.371,0-0.635-0.288-0.635-0.648c0-0.371,0.275-0.659,0.659-0.659
		C415.917,107.433,416.169,107.721,416.169,108.092z M414.994,115.528v-5.805h1.057v5.805H414.994z"/>
	<path d="M423.055,112.578c0,2.146-1.487,3.082-2.89,3.082c-1.572,0-2.783-1.151-2.783-2.986c0-1.943,1.271-3.082,2.879-3.082
		C421.928,109.592,423.055,110.803,423.055,112.578z M418.45,112.638c0,1.271,0.731,2.231,1.763,2.231
		c1.008,0,1.764-0.947,1.764-2.256c0-0.982-0.492-2.23-1.739-2.23S418.45,111.535,418.45,112.638z"/>
	<path d="M424.39,111.295c0-0.6-0.012-1.092-0.048-1.571h0.936l0.06,0.96h0.024c0.288-0.553,0.96-1.092,1.919-1.092
		c0.803,0,2.051,0.479,2.051,2.471v3.466h-1.056v-3.347c0-0.936-0.348-1.715-1.343-1.715c-0.695,0-1.236,0.492-1.416,1.08
		c-0.047,0.131-0.071,0.312-0.071,0.491v3.49h-1.056V111.295z"/>
</g>
<rect x="120.833" y="100.361" fill="#DADADA" width="140.5" height="69.889"/>
<g>
	<path d="M173.602,131.935c-0.06-1.128-0.132-2.483-0.12-3.49h-0.036c-0.276,0.947-0.612,1.955-1.02,3.07l-1.427,3.922h-0.792
		l-1.307-3.85c-0.384-1.14-0.708-2.183-0.936-3.143h-0.024c-0.024,1.007-0.084,2.362-0.156,3.574l-0.216,3.466h-0.995l0.563-8.084
		h1.331l1.379,3.91c0.336,0.995,0.612,1.883,0.815,2.723h0.036c0.204-0.815,0.492-1.703,0.852-2.723l1.439-3.91h1.331l0.504,8.084
		h-1.02L173.602,131.935z"/>
	<path d="M176.438,127.4h1.043v7.208h3.454v0.876h-4.498V127.4z"/>
	<path d="M184.008,131.851v0.779h-2.962v-0.779H184.008z"/>
	<path d="M192.093,131.935c-0.06-1.128-0.132-2.483-0.12-3.49h-0.036c-0.276,0.947-0.612,1.955-1.02,3.07l-1.427,3.922h-0.792
		l-1.307-3.85c-0.384-1.14-0.708-2.183-0.936-3.143h-0.024c-0.024,1.007-0.084,2.362-0.156,3.574l-0.216,3.466h-0.995l0.563-8.084
		h1.332l1.379,3.91c0.336,0.995,0.612,1.883,0.815,2.723h0.036c0.204-0.815,0.492-1.703,0.852-2.723l1.439-3.91h1.331l0.504,8.084
		h-1.02L192.093,131.935z"/>
	<path d="M200.218,132.534c0,2.146-1.487,3.082-2.89,3.082c-1.571,0-2.783-1.151-2.783-2.986c0-1.942,1.271-3.082,2.878-3.082
		C199.091,129.548,200.218,130.759,200.218,132.534z M195.612,132.594c0,1.271,0.732,2.231,1.763,2.231
		c1.007,0,1.763-0.948,1.763-2.255c0-0.983-0.492-2.23-1.739-2.23C196.152,130.34,195.612,131.49,195.612,132.594z"/>
	<path d="M206.566,126.969v7.017c0,0.516,0.012,1.104,0.048,1.499h-0.947l-0.048-1.008h-0.024c-0.324,0.648-1.032,1.14-1.979,1.14
		c-1.403,0-2.483-1.188-2.483-2.95c-0.012-1.932,1.188-3.118,2.603-3.118c0.888,0,1.487,0.419,1.751,0.888h0.024v-3.467H206.566z
		 M205.511,132.042c0-0.132-0.012-0.312-0.048-0.443c-0.156-0.672-0.731-1.224-1.523-1.224c-1.091,0-1.739,0.96-1.739,2.243
		c0,1.175,0.576,2.146,1.715,2.146c0.708,0,1.355-0.468,1.547-1.259c0.036-0.145,0.048-0.288,0.048-0.456V132.042z"/>
	<path d="M208.909,132.773c0.024,1.428,0.936,2.016,1.991,2.016c0.755,0,1.211-0.132,1.607-0.3l0.18,0.755
		c-0.372,0.168-1.007,0.36-1.931,0.36c-1.787,0-2.854-1.176-2.854-2.927s1.032-3.13,2.723-3.13c1.895,0,2.399,1.667,2.399,2.734
		c0,0.216-0.024,0.384-0.036,0.491H208.909z M212.003,132.019c0.012-0.672-0.276-1.716-1.463-1.716
		c-1.067,0-1.535,0.984-1.619,1.716H212.003z"/>
	<path d="M214.333,126.969h1.056v8.516h-1.056V126.969z"/>
	<path d="M174.283,145.495c0.021,1.224,0.802,1.728,1.707,1.728c0.648,0,1.039-0.113,1.378-0.257l0.154,0.647
		c-0.319,0.145-0.864,0.309-1.656,0.309c-1.532,0-2.448-1.008-2.448-2.509c0-1.502,0.885-2.685,2.335-2.685
		c1.625,0,2.057,1.43,2.057,2.345c0,0.186-0.021,0.329-0.031,0.422H174.283z M176.937,144.847c0.01-0.575-0.237-1.471-1.255-1.471
		c-0.915,0-1.316,0.844-1.388,1.471H176.937z"/>
	<path d="M178.589,147.284c0-0.38,0.257-0.647,0.617-0.647s0.607,0.268,0.607,0.647c0,0.371-0.237,0.648-0.617,0.648
		C178.836,147.933,178.589,147.655,178.589,147.284z"/>
	<path d="M185.222,142.842c-0.021,0.359-0.042,0.761-0.042,1.368v2.89c0,1.142-0.226,1.841-0.709,2.272
		c-0.483,0.453-1.183,0.597-1.81,0.597c-0.597,0-1.255-0.144-1.656-0.411l0.226-0.689c0.329,0.206,0.843,0.391,1.46,0.391
		c0.926,0,1.604-0.483,1.604-1.737v-0.556h-0.021c-0.278,0.463-0.813,0.833-1.584,0.833c-1.234,0-2.119-1.049-2.119-2.427
		c0-1.688,1.101-2.644,2.242-2.644c0.864,0,1.337,0.452,1.553,0.864h0.021l0.041-0.751H185.222z M184.286,144.806
		c0-0.154-0.01-0.288-0.051-0.411c-0.165-0.524-0.607-0.956-1.265-0.956c-0.864,0-1.481,0.729-1.481,1.882
		c0,0.977,0.494,1.789,1.471,1.789c0.555,0,1.059-0.35,1.255-0.925c0.051-0.154,0.072-0.329,0.072-0.483V144.806z"/>
	<path d="M186.309,147.284c0-0.38,0.257-0.647,0.617-0.647s0.607,0.268,0.607,0.647c0,0.371-0.237,0.648-0.617,0.648
		C186.556,147.933,186.309,147.655,186.309,147.284z"/>
	<path d="M190.863,140.98c0.452-0.093,1.1-0.145,1.717-0.145c0.957,0,1.574,0.175,2.005,0.565c0.35,0.309,0.545,0.782,0.545,1.316
		c0,0.916-0.576,1.522-1.306,1.77v0.03c0.535,0.186,0.854,0.68,1.018,1.399c0.226,0.967,0.391,1.635,0.535,1.902h-0.925
		c-0.113-0.195-0.268-0.792-0.463-1.656c-0.206-0.956-0.576-1.316-1.389-1.347h-0.843v3.003h-0.895V140.98z M191.757,144.138h0.916
		c0.957,0,1.563-0.524,1.563-1.316c0-0.895-0.648-1.286-1.594-1.296c-0.432,0-0.741,0.041-0.885,0.082V144.138z"/>
	<path d="M196.393,147.819v-6.932h0.977l2.221,3.507c0.514,0.813,0.916,1.543,1.245,2.252l0.021-0.01
		c-0.083-0.926-0.103-1.769-0.103-2.849v-2.9h0.843v6.932h-0.905l-2.201-3.518c-0.483-0.771-0.946-1.563-1.295-2.313l-0.031,0.01
		c0.052,0.874,0.072,1.708,0.072,2.859v2.962H196.393z"/>
	<path d="M203.157,147.819v-6.932h0.977l2.221,3.507c0.514,0.813,0.916,1.543,1.245,2.252l0.021-0.01
		c-0.083-0.926-0.103-1.769-0.103-2.849v-2.9h0.843v6.932h-0.905l-2.201-3.518c-0.483-0.771-0.946-1.563-1.295-2.313l-0.031,0.01
		c0.052,0.874,0.072,1.708,0.072,2.859v2.962H203.157z"/>
</g>
<g>
	<path d="M24.974,17.916V26H23.93v-8.084H24.974z"/>
	<path d="M26.882,21.766c0-0.6-0.012-1.091-0.048-1.57h0.936l0.06,0.959h0.024c0.288-0.551,0.959-1.091,1.919-1.091
		c0.803,0,2.051,0.479,2.051,2.47V26h-1.056v-3.346c0-0.936-0.348-1.715-1.343-1.715c-0.695,0-1.235,0.491-1.415,1.078
		c-0.048,0.133-0.072,0.313-0.072,0.492V26h-1.056V21.766z"/>
	<path d="M33.542,22.09c0-0.743-0.024-1.343-0.048-1.895h0.947l0.048,0.995h0.024c0.432-0.708,1.115-1.127,2.063-1.127
		c1.403,0,2.459,1.187,2.459,2.95c0,2.087-1.271,3.118-2.639,3.118c-0.768,0-1.439-0.336-1.787-0.911h-0.024v3.154h-1.043V22.09z
		 M34.586,23.637c0,0.156,0.024,0.301,0.048,0.432c0.192,0.732,0.828,1.236,1.583,1.236c1.116,0,1.763-0.912,1.763-2.243
		c0-1.163-0.612-2.159-1.727-2.159c-0.72,0-1.391,0.516-1.595,1.308c-0.036,0.132-0.072,0.288-0.072,0.432V23.637z"/>
	<path d="M45.228,24.417c0,0.6,0.012,1.128,0.048,1.583H44.34l-0.06-0.947h-0.024c-0.276,0.468-0.887,1.079-1.919,1.079
		c-0.911,0-2.003-0.503-2.003-2.542v-3.395h1.056v3.214c0,1.104,0.336,1.847,1.295,1.847c0.708,0,1.199-0.491,1.391-0.959
		c0.06-0.156,0.096-0.348,0.096-0.539v-3.563h1.056V24.417z"/>
	<path d="M48.253,18.528v1.667h1.511v0.803h-1.511v3.131c0,0.72,0.204,1.127,0.792,1.127c0.276,0,0.479-0.035,0.611-0.071
		l0.048,0.792c-0.204,0.084-0.528,0.144-0.936,0.144c-0.492,0-0.888-0.156-1.14-0.444c-0.3-0.312-0.408-0.827-0.408-1.511v-3.167
		h-0.899v-0.803h0.899v-1.392L48.253,18.528z"/>
	<path d="M55.788,17.677c-0.875,1.175-1.511,2.734-1.511,4.905c0,2.135,0.66,3.67,1.511,4.869h-0.827
		c-0.756-0.996-1.571-2.531-1.571-4.869c0.012-2.363,0.815-3.898,1.571-4.905H55.788z"/>
	<path d="M58.861,19.188h-0.024l-1.355,0.732l-0.204-0.805l1.703-0.911h0.9V26h-1.02V19.188z"/>
	<path d="M62.426,27.451c0.852-1.188,1.511-2.746,1.511-4.905c0-2.147-0.647-3.683-1.511-4.869h0.815
		c0.768,0.983,1.571,2.519,1.571,4.882c0,2.35-0.804,3.873-1.571,4.893H62.426z"/>
</g>
<g>
	<path d="M169.884,26l-2.639-8.084h1.127l1.259,3.982c0.348,1.092,0.648,2.074,0.864,3.021h0.024
		c0.228-0.935,0.563-1.954,0.923-3.01l1.367-3.994h1.116L171.036,26H169.884z"/>
	<path d="M174.961,23.289c0.024,1.428,0.936,2.016,1.991,2.016c0.755,0,1.211-0.133,1.607-0.301l0.18,0.756
		c-0.372,0.168-1.007,0.36-1.931,0.36c-1.787,0-2.854-1.176-2.854-2.927s1.032-3.13,2.723-3.13c1.895,0,2.399,1.667,2.399,2.734
		c0,0.216-0.024,0.384-0.036,0.491H174.961z M178.055,22.533c0.012-0.671-0.276-1.715-1.463-1.715c-1.067,0-1.535,0.984-1.619,1.715
		H178.055z"/>
	<path d="M184.522,25.784c-0.276,0.144-0.888,0.336-1.667,0.336c-1.751,0-2.891-1.188-2.891-2.962c0-1.787,1.224-3.083,3.119-3.083
		c0.624,0,1.175,0.155,1.463,0.3l-0.24,0.815c-0.252-0.144-0.647-0.275-1.223-0.275c-1.332,0-2.051,0.983-2.051,2.194
		c0,1.344,0.864,2.171,2.015,2.171c0.6,0,0.996-0.155,1.295-0.288L184.522,25.784z"/>
	<path d="M187.188,18.528v1.667h1.511v0.803h-1.511v3.131c0,0.72,0.204,1.127,0.792,1.127c0.276,0,0.479-0.035,0.611-0.071
		l0.048,0.792c-0.204,0.084-0.528,0.144-0.936,0.144c-0.492,0-0.888-0.156-1.14-0.444c-0.3-0.312-0.408-0.827-0.408-1.511v-3.167
		h-0.899v-0.803h0.899v-1.392L187.188,18.528z"/>
	<path d="M195.069,23.05c0,2.146-1.487,3.082-2.89,3.082c-1.571,0-2.783-1.151-2.783-2.986c0-1.942,1.271-3.082,2.878-3.082
		C193.942,20.063,195.069,21.274,195.069,23.05z M190.464,23.109c0,1.271,0.732,2.23,1.763,2.23c1.007,0,1.763-0.947,1.763-2.254
		c0-0.984-0.492-2.23-1.739-2.23C191.004,20.855,190.464,22.006,190.464,23.109z"/>
	<path d="M196.404,22.006c0-0.684-0.012-1.271-0.048-1.811h0.923l0.036,1.139h0.048c0.264-0.779,0.899-1.271,1.607-1.271
		c0.12,0,0.204,0.012,0.3,0.036v0.995c-0.108-0.024-0.216-0.036-0.359-0.036c-0.744,0-1.271,0.564-1.416,1.355
		c-0.024,0.145-0.048,0.312-0.048,0.492V26h-1.043V22.006z"/>
	<path d="M205.163,17.677c-0.876,1.175-1.511,2.734-1.511,4.905c0,2.135,0.66,3.67,1.511,4.869h-0.828
		c-0.756-0.996-1.571-2.531-1.571-4.869c0.012-2.363,0.815-3.898,1.571-4.905H205.163z"/>
	<path d="M205.944,26v-0.647l0.828-0.804c1.991-1.895,2.891-2.902,2.902-4.078c0-0.791-0.384-1.523-1.547-1.523
		c-0.708,0-1.295,0.36-1.655,0.66l-0.336-0.744c0.54-0.455,1.308-0.791,2.207-0.791c1.679,0,2.387,1.151,2.387,2.267
		c0,1.439-1.043,2.603-2.687,4.187l-0.624,0.575v0.024h3.502V26H205.944z"/>
	<path d="M211.8,27.451c0.852-1.188,1.511-2.746,1.511-4.905c0-2.147-0.647-3.683-1.511-4.869h0.816
		c0.768,0.983,1.571,2.519,1.571,4.882c0,2.35-0.803,3.873-1.571,4.893H211.8z"/>
</g>
<g>
	<path d="M344.396,18.024c0.527-0.108,1.283-0.168,2.002-0.168c1.115,0,1.836,0.204,2.339,0.659c0.407,0.36,0.636,0.912,0.636,1.535
		c0,1.068-0.672,1.775-1.523,2.063v0.036c0.624,0.216,0.996,0.791,1.188,1.631c0.264,1.127,0.456,1.906,0.624,2.219h-1.079
		c-0.133-0.229-0.313-0.924-0.54-1.932c-0.239-1.115-0.672-1.535-1.619-1.57h-0.983V26h-1.043V18.024z M345.439,21.707h1.067
		c1.115,0,1.823-0.612,1.823-1.535c0-1.044-0.756-1.5-1.859-1.512c-0.504,0-0.863,0.048-1.031,0.096V21.707z"/>
	<path d="M351.451,23.289c0.024,1.428,0.936,2.016,1.991,2.016c0.755,0,1.212-0.133,1.606-0.301l0.181,0.756
		c-0.372,0.168-1.007,0.36-1.931,0.36c-1.787,0-2.855-1.176-2.855-2.927s1.032-3.13,2.723-3.13c1.896,0,2.399,1.667,2.399,2.734
		c0,0.216-0.024,0.384-0.036,0.491H351.451z M354.545,22.533c0.012-0.671-0.276-1.715-1.464-1.715c-1.066,0-1.535,0.984-1.619,1.715
		H354.545z"/>
	<path d="M356.731,24.92c0.312,0.205,0.864,0.42,1.392,0.42c0.768,0,1.127-0.383,1.127-0.863c0-0.504-0.3-0.779-1.079-1.067
		c-1.044-0.372-1.535-0.947-1.535-1.644c0-0.935,0.755-1.702,2.003-1.702c0.588,0,1.104,0.167,1.428,0.359l-0.265,0.768
		c-0.228-0.144-0.647-0.335-1.187-0.335c-0.625,0-0.973,0.359-0.973,0.791c0,0.479,0.348,0.695,1.104,0.983
		c1.008,0.384,1.523,0.888,1.523,1.751c0,1.02-0.791,1.739-2.171,1.739c-0.636,0-1.224-0.156-1.631-0.396L356.731,24.92z"/>
	<path d="M366.484,24.417c0,0.6,0.012,1.128,0.049,1.583h-0.936l-0.061-0.947h-0.023c-0.276,0.468-0.888,1.079-1.92,1.079
		c-0.91,0-2.002-0.503-2.002-2.542v-3.395h1.055v3.214c0,1.104,0.336,1.847,1.296,1.847c0.708,0,1.199-0.491,1.392-0.959
		c0.06-0.156,0.096-0.348,0.096-0.539v-3.563h1.055V24.417z"/>
	<path d="M368.239,17.484h1.056V26h-1.056V17.484z"/>
	<path d="M372.342,18.528v1.667h1.511v0.803h-1.511v3.131c0,0.72,0.204,1.127,0.792,1.127c0.275,0,0.479-0.035,0.611-0.071
		l0.048,0.792c-0.204,0.084-0.528,0.144-0.936,0.144c-0.491,0-0.888-0.156-1.14-0.444c-0.3-0.312-0.408-0.827-0.408-1.511v-3.167
		h-0.898v-0.803h0.898v-1.392L372.342,18.528z"/>
	<path d="M379.876,17.677c-0.875,1.175-1.51,2.734-1.51,4.905c0,2.135,0.659,3.67,1.51,4.869h-0.826
		c-0.756-0.996-1.572-2.531-1.572-4.869c0.013-2.363,0.816-3.898,1.572-4.905H379.876z"/>
	<path d="M380.911,24.789c0.3,0.191,0.995,0.491,1.728,0.491c1.355,0,1.774-0.863,1.763-1.511c-0.013-1.092-0.995-1.56-2.015-1.56
		h-0.588v-0.792h0.588c0.768,0,1.738-0.395,1.738-1.318c0-0.624-0.396-1.176-1.367-1.176c-0.623,0-1.223,0.275-1.559,0.516
		l-0.275-0.768c0.407-0.3,1.199-0.6,2.038-0.6c1.535,0,2.231,0.912,2.231,1.859c0,0.803-0.48,1.486-1.439,1.834v0.025
		c0.959,0.191,1.738,0.91,1.738,2.002c0,1.248-0.971,2.339-2.842,2.339c-0.875,0-1.643-0.276-2.027-0.528L380.911,24.789z"/>
	<path d="M386.515,27.451c0.852-1.188,1.511-2.746,1.511-4.905c0-2.147-0.647-3.683-1.511-4.869h0.814
		c0.768,0.983,1.572,2.519,1.572,4.882c0,2.35-0.805,3.873-1.572,4.893H386.515z"/>
</g>
<g>
	<path d="M303.324,131.851v0.779h-2.963v-0.779H303.324z"/>
	<path d="M306.998,134.213c0.467,0.288,1.15,0.527,1.871,0.527c1.066,0,1.691-0.563,1.691-1.379c0-0.756-0.434-1.188-1.523-1.607
		c-1.32-0.467-2.135-1.15-2.135-2.29c0-1.259,1.043-2.194,2.613-2.194c0.828,0,1.428,0.191,1.787,0.395l-0.287,0.852
		c-0.264-0.144-0.805-0.383-1.535-0.383c-1.104,0-1.523,0.659-1.523,1.211c0,0.756,0.492,1.127,1.607,1.559
		c1.367,0.528,2.063,1.188,2.063,2.375c0,1.248-0.924,2.327-2.83,2.327c-0.779,0-1.631-0.228-2.063-0.517L306.998,134.213z"/>
	<path d="M314.197,128.049c0.012,0.359-0.252,0.647-0.672,0.647c-0.371,0-0.637-0.288-0.637-0.647c0-0.372,0.277-0.66,0.66-0.66
		C313.945,127.389,314.197,127.677,314.197,128.049z M313.021,135.484v-5.805h1.055v5.805H313.021z"/>
	<path d="M315.83,131.25c0-0.6-0.014-1.091-0.049-1.57h0.924l0.047,0.936h0.037c0.324-0.552,0.863-1.067,1.822-1.067
		c0.791,0,1.391,0.479,1.643,1.163h0.025c0.18-0.324,0.406-0.576,0.646-0.756c0.348-0.264,0.732-0.407,1.283-0.407
		c0.768,0,1.908,0.503,1.908,2.519v3.418h-1.031v-3.286c0-1.115-0.408-1.787-1.26-1.787c-0.6,0-1.068,0.444-1.248,0.96
		c-0.047,0.144-0.084,0.336-0.084,0.527v3.586h-1.031v-3.479c0-0.923-0.408-1.595-1.211-1.595c-0.66,0-1.139,0.528-1.307,1.056
		c-0.061,0.156-0.084,0.336-0.084,0.516v3.502h-1.031V131.25z"/>
	<path d="M327.011,128.049c0.012,0.359-0.252,0.647-0.672,0.647c-0.371,0-0.635-0.288-0.635-0.647c0-0.372,0.275-0.66,0.66-0.66
		C326.759,127.389,327.011,127.677,327.011,128.049z M325.837,135.484v-5.805h1.055v5.805H325.837z"/>
	<path d="M328.644,126.969h1.055v8.516h-1.055V126.969z"/>
	<path d="M334.691,135.484l-0.084-0.731h-0.037c-0.324,0.456-0.947,0.863-1.775,0.863c-1.174,0-1.773-0.827-1.773-1.667
		c0-1.403,1.246-2.171,3.49-2.158v-0.121c0-0.479-0.133-1.343-1.32-1.343c-0.539,0-1.104,0.168-1.512,0.432l-0.238-0.695
		c0.479-0.312,1.174-0.516,1.906-0.516c1.775,0,2.207,1.211,2.207,2.374v2.172c0,0.503,0.023,0.994,0.096,1.391H334.691z
		 M334.535,132.521c-1.152-0.023-2.459,0.181-2.459,1.308c0,0.684,0.455,1.008,0.996,1.008c0.756,0,1.234-0.479,1.402-0.972
		c0.037-0.107,0.061-0.229,0.061-0.336V132.521z"/>
	<path d="M337.261,131.49c0-0.684-0.014-1.271-0.049-1.811h0.924l0.035,1.139h0.049c0.264-0.779,0.898-1.271,1.607-1.271
		c0.119,0,0.203,0.012,0.299,0.036v0.995c-0.107-0.024-0.215-0.036-0.359-0.036c-0.744,0-1.271,0.564-1.416,1.355
		c-0.023,0.145-0.047,0.312-0.047,0.492v3.094h-1.043V131.49z"/>
	<path d="M343.763,127.4h1.045v7.209h3.453v0.875h-4.498V127.4z"/>
	<path d="M352.607,135.484l-0.084-0.731h-0.037c-0.324,0.456-0.947,0.863-1.775,0.863c-1.174,0-1.773-0.827-1.773-1.667
		c0-1.403,1.246-2.171,3.49-2.158v-0.121c0-0.479-0.133-1.343-1.32-1.343c-0.539,0-1.104,0.168-1.512,0.432l-0.238-0.695
		c0.479-0.312,1.174-0.516,1.906-0.516c1.775,0,2.207,1.211,2.207,2.374v2.172c0,0.503,0.023,0.994,0.096,1.391H352.607z
		 M352.451,132.521c-1.152-0.023-2.459,0.181-2.459,1.308c0,0.684,0.455,1.008,0.996,1.008c0.756,0,1.234-0.479,1.402-0.972
		c0.037-0.107,0.061-0.229,0.061-0.336V132.521z"/>
	<path d="M355.464,129.68l1.271,3.43c0.131,0.385,0.275,0.84,0.371,1.188h0.025c0.107-0.348,0.227-0.791,0.371-1.211l1.15-3.406
		h1.115l-1.582,4.138c-0.756,1.991-1.271,3.011-1.99,3.634c-0.516,0.456-1.033,0.636-1.297,0.684l-0.264-0.887
		c0.264-0.084,0.611-0.252,0.924-0.517c0.289-0.228,0.648-0.636,0.889-1.175c0.047-0.108,0.084-0.192,0.084-0.252
		c0-0.061-0.025-0.145-0.072-0.275l-2.146-5.35H355.464z"/>
	<path d="M365.867,132.534c0,2.146-1.488,3.082-2.891,3.082c-1.572,0-2.783-1.151-2.783-2.986c0-1.942,1.271-3.082,2.879-3.082
		C364.738,129.548,365.867,130.759,365.867,132.534z M361.261,132.594c0,1.271,0.73,2.23,1.762,2.23
		c1.008,0,1.764-0.947,1.764-2.254c0-0.984-0.492-2.23-1.738-2.23C361.8,130.34,361.261,131.49,361.261,132.594z"/>
	<path d="M372.058,133.901c0,0.6,0.012,1.128,0.049,1.583h-0.936l-0.061-0.947h-0.023c-0.277,0.468-0.889,1.079-1.92,1.079
		c-0.912,0-2.002-0.503-2.002-2.542v-3.395h1.055v3.214c0,1.104,0.336,1.847,1.295,1.847c0.707,0,1.199-0.491,1.391-0.959
		c0.061-0.156,0.098-0.348,0.098-0.539v-3.563h1.055V133.901z"/>
	<path d="M375.083,128.013v1.667h1.512v0.803h-1.512v3.131c0,0.72,0.205,1.127,0.793,1.127c0.275,0,0.479-0.035,0.611-0.071
		l0.047,0.792c-0.203,0.084-0.527,0.144-0.936,0.144c-0.49,0-0.887-0.156-1.139-0.444c-0.299-0.312-0.408-0.827-0.408-1.511v-3.167
		h-0.898v-0.803h0.898v-1.392L375.083,128.013z"/>
	<path d="M303.324,146.25v0.779h-2.963v-0.779H303.324z"/>
	<path d="M306.998,148.613c0.467,0.287,1.15,0.527,1.871,0.527c1.066,0,1.691-0.563,1.691-1.379c0-0.756-0.434-1.188-1.523-1.607
		c-1.32-0.468-2.135-1.151-2.135-2.291c0-1.259,1.043-2.194,2.613-2.194c0.828,0,1.428,0.192,1.787,0.396l-0.287,0.852
		c-0.264-0.145-0.805-0.384-1.535-0.384c-1.104,0-1.523,0.659-1.523,1.212c0,0.755,0.492,1.127,1.607,1.559
		c1.367,0.527,2.063,1.188,2.063,2.375c0,1.247-0.924,2.326-2.83,2.326c-0.779,0-1.631-0.228-2.063-0.516L306.998,148.613z"/>
	<path d="M314.197,142.448c0.012,0.36-0.252,0.647-0.672,0.647c-0.371,0-0.637-0.287-0.637-0.647c0-0.372,0.277-0.659,0.66-0.659
		C313.945,141.789,314.197,142.076,314.197,142.448z M313.021,149.885v-5.805h1.055v5.805H313.021z"/>
	<path d="M315.83,145.65c0-0.6-0.014-1.092-0.049-1.57h0.924l0.047,0.936h0.037c0.324-0.553,0.863-1.068,1.822-1.068
		c0.791,0,1.391,0.48,1.643,1.164h0.025c0.18-0.324,0.406-0.576,0.646-0.756c0.348-0.264,0.732-0.408,1.283-0.408
		c0.768,0,1.908,0.504,1.908,2.52v3.418h-1.031v-3.287c0-1.115-0.408-1.787-1.26-1.787c-0.6,0-1.068,0.444-1.248,0.96
		c-0.047,0.144-0.084,0.336-0.084,0.528v3.586h-1.031v-3.479c0-0.924-0.408-1.596-1.211-1.596c-0.66,0-1.139,0.528-1.307,1.057
		c-0.061,0.155-0.084,0.335-0.084,0.516v3.502h-1.031V145.65z"/>
	<path d="M327.011,142.448c0.012,0.36-0.252,0.647-0.672,0.647c-0.371,0-0.635-0.287-0.635-0.647c0-0.372,0.275-0.659,0.66-0.659
		C326.759,141.789,327.011,142.076,327.011,142.448z M325.837,149.885v-5.805h1.055v5.805H325.837z"/>
	<path d="M328.644,141.369h1.055v8.516h-1.055V141.369z"/>
	<path d="M334.691,149.885l-0.084-0.732h-0.037c-0.324,0.456-0.947,0.863-1.775,0.863c-1.174,0-1.773-0.827-1.773-1.666
		c0-1.404,1.246-2.172,3.49-2.159v-0.12c0-0.479-0.133-1.344-1.32-1.344c-0.539,0-1.104,0.168-1.512,0.432l-0.238-0.695
		c0.479-0.312,1.174-0.516,1.906-0.516c1.775,0,2.207,1.211,2.207,2.375v2.171c0,0.503,0.023,0.995,0.096,1.392H334.691z
		 M334.535,146.922c-1.152-0.023-2.459,0.18-2.459,1.307c0,0.684,0.455,1.008,0.996,1.008c0.756,0,1.234-0.479,1.402-0.971
		c0.037-0.108,0.061-0.229,0.061-0.336V146.922z"/>
	<path d="M337.261,145.891c0-0.684-0.014-1.271-0.049-1.811h0.924l0.035,1.139h0.049c0.264-0.779,0.898-1.271,1.607-1.271
		c0.119,0,0.203,0.012,0.299,0.036v0.995c-0.107-0.023-0.215-0.035-0.359-0.035c-0.744,0-1.271,0.563-1.416,1.355
		c-0.023,0.144-0.047,0.311-0.047,0.491v3.095h-1.043V145.891z"/>
	<path d="M349.414,149.621c-0.385,0.191-1.152,0.383-2.135,0.383c-2.279,0-3.994-1.439-3.994-4.09c0-2.53,1.715-4.245,4.221-4.245
		c1.008,0,1.645,0.216,1.92,0.36l-0.252,0.851c-0.396-0.191-0.959-0.335-1.631-0.335c-1.895,0-3.154,1.211-3.154,3.334
		c0,1.979,1.139,3.25,3.105,3.25c0.637,0,1.283-0.133,1.703-0.336L349.414,149.621z"/>
	<path d="M355.81,146.934c0,2.146-1.488,3.082-2.891,3.082c-1.572,0-2.783-1.15-2.783-2.986c0-1.942,1.271-3.082,2.879-3.082
		C354.681,143.947,355.81,145.158,355.81,146.934z M351.205,146.994c0,1.271,0.73,2.23,1.762,2.23c1.008,0,1.764-0.947,1.764-2.255
		c0-0.983-0.492-2.23-1.738-2.23C351.744,144.739,351.205,145.891,351.205,146.994z"/>
	<path d="M357.144,145.65c0-0.6-0.012-1.092-0.049-1.57h0.936l0.061,0.959h0.023c0.289-0.552,0.961-1.092,1.92-1.092
		c0.803,0,2.051,0.48,2.051,2.471v3.467h-1.055v-3.347c0-0.936-0.35-1.715-1.344-1.715c-0.695,0-1.236,0.491-1.416,1.079
		c-0.047,0.132-0.072,0.313-0.072,0.492v3.49h-1.055V145.65z"/>
	<path d="M365.027,142.412v1.668h1.512v0.803h-1.512v3.131c0,0.719,0.205,1.127,0.793,1.127c0.275,0,0.479-0.036,0.611-0.072
		l0.047,0.792c-0.203,0.084-0.527,0.144-0.936,0.144c-0.49,0-0.887-0.156-1.139-0.443c-0.299-0.313-0.408-0.828-0.408-1.512v-3.166
		h-0.898v-0.803h0.898v-1.392L365.027,142.412z"/>
	<path d="M368.244,147.174c0.023,1.428,0.936,2.015,1.99,2.015c0.756,0,1.211-0.132,1.607-0.3l0.18,0.756
		c-0.371,0.168-1.008,0.359-1.93,0.359c-1.787,0-2.855-1.175-2.855-2.926c0-1.752,1.031-3.131,2.723-3.131
		c1.895,0,2.398,1.668,2.398,2.734c0,0.217-0.023,0.385-0.035,0.492H368.244z M371.337,146.418c0.012-0.672-0.275-1.715-1.463-1.715
		c-1.066,0-1.535,0.983-1.619,1.715H371.337z"/>
	<path d="M373.667,145.65c0-0.6-0.012-1.092-0.049-1.57h0.936l0.061,0.959h0.023c0.289-0.552,0.961-1.092,1.92-1.092
		c0.803,0,2.051,0.48,2.051,2.471v3.467h-1.055v-3.347c0-0.936-0.35-1.715-1.344-1.715c-0.695,0-1.236,0.491-1.416,1.079
		c-0.047,0.132-0.072,0.313-0.072,0.492v3.49h-1.055V145.65z"/>
	<path d="M381.55,142.412v1.668h1.512v0.803h-1.512v3.131c0,0.719,0.205,1.127,0.793,1.127c0.275,0,0.479-0.036,0.611-0.072
		l0.047,0.792c-0.203,0.084-0.527,0.144-0.936,0.144c-0.49,0-0.887-0.156-1.139-0.443c-0.299-0.313-0.408-0.828-0.408-1.512v-3.166
		h-0.898v-0.803h0.898v-1.392L381.55,142.412z"/>
	<path d="M303.324,160.65v0.779h-2.963v-0.779H303.324z"/>
	<path d="M306.998,163.013c0.467,0.288,1.15,0.528,1.871,0.528c1.066,0,1.691-0.564,1.691-1.38c0-0.755-0.434-1.187-1.523-1.606
		c-1.32-0.469-2.135-1.152-2.135-2.291c0-1.26,1.043-2.195,2.613-2.195c0.828,0,1.428,0.192,1.787,0.396l-0.287,0.852
		c-0.264-0.145-0.805-0.385-1.535-0.385c-1.104,0-1.523,0.66-1.523,1.212c0,0.755,0.492,1.128,1.607,1.56
		c1.367,0.527,2.063,1.188,2.063,2.374c0,1.247-0.924,2.327-2.83,2.327c-0.779,0-1.631-0.229-2.063-0.516L306.998,163.013z"/>
	<path d="M314.197,156.848c0.012,0.36-0.252,0.648-0.672,0.648c-0.371,0-0.637-0.288-0.637-0.648c0-0.371,0.277-0.659,0.66-0.659
		C313.945,156.188,314.197,156.477,314.197,156.848z M313.021,164.284v-5.805h1.055v5.805H313.021z"/>
	<path d="M315.83,160.051c0-0.6-0.014-1.092-0.049-1.571h0.924l0.047,0.936h0.037c0.324-0.552,0.863-1.067,1.822-1.067
		c0.791,0,1.391,0.479,1.643,1.163h0.025c0.18-0.323,0.406-0.575,0.646-0.755c0.348-0.265,0.732-0.408,1.283-0.408
		c0.768,0,1.908,0.504,1.908,2.519v3.418h-1.031v-3.286c0-1.115-0.408-1.787-1.26-1.787c-0.6,0-1.068,0.443-1.248,0.959
		c-0.047,0.145-0.084,0.336-0.084,0.528v3.586h-1.031v-3.478c0-0.924-0.408-1.596-1.211-1.596c-0.66,0-1.139,0.527-1.307,1.056
		c-0.061,0.155-0.084,0.335-0.084,0.516v3.502h-1.031V160.051z"/>
	<path d="M327.011,156.848c0.012,0.36-0.252,0.648-0.672,0.648c-0.371,0-0.635-0.288-0.635-0.648c0-0.371,0.275-0.659,0.66-0.659
		C326.759,156.188,327.011,156.477,327.011,156.848z M325.837,164.284v-5.805h1.055v5.805H325.837z"/>
	<path d="M328.644,155.77h1.055v8.515h-1.055V155.77z"/>
	<path d="M334.691,164.284l-0.084-0.731h-0.037c-0.324,0.455-0.947,0.863-1.775,0.863c-1.174,0-1.773-0.828-1.773-1.667
		c0-1.403,1.246-2.171,3.49-2.159v-0.119c0-0.48-0.133-1.344-1.32-1.344c-0.539,0-1.104,0.168-1.512,0.432l-0.238-0.695
		c0.479-0.313,1.174-0.516,1.906-0.516c1.775,0,2.207,1.211,2.207,2.375v2.17c0,0.504,0.023,0.996,0.096,1.392H334.691z
		 M334.535,161.322c-1.152-0.024-2.459,0.18-2.459,1.307c0,0.684,0.455,1.008,0.996,1.008c0.756,0,1.234-0.48,1.402-0.972
		c0.037-0.108,0.061-0.228,0.061-0.336V161.322z"/>
	<path d="M337.261,160.291c0-0.684-0.014-1.271-0.049-1.812h0.924l0.035,1.14h0.049c0.264-0.779,0.898-1.271,1.607-1.271
		c0.119,0,0.203,0.012,0.299,0.035v0.996c-0.107-0.023-0.215-0.036-0.359-0.036c-0.744,0-1.271,0.563-1.416,1.355
		c-0.023,0.144-0.047,0.312-0.047,0.491v3.095h-1.043V160.291z"/>
	<path d="M345.072,161.742l-0.84,2.542h-1.08l2.746-8.083h1.26l2.76,8.083H348.8l-0.863-2.542H345.072z M347.722,160.926
		l-0.791-2.326c-0.182-0.527-0.301-1.008-0.42-1.476h-0.025c-0.119,0.479-0.252,0.972-0.406,1.464l-0.793,2.338H347.722z"/>
	<path d="M355.066,164.068c-0.275,0.145-0.887,0.336-1.668,0.336c-1.75,0-2.889-1.188-2.889-2.963c0-1.787,1.223-3.082,3.117-3.082
		c0.623,0,1.176,0.156,1.463,0.3l-0.24,0.815c-0.25-0.144-0.646-0.275-1.223-0.275c-1.33,0-2.051,0.983-2.051,2.194
		c0,1.343,0.863,2.171,2.016,2.171c0.6,0,0.994-0.156,1.295-0.287L355.066,164.068z"/>
	<path d="M357.73,156.813v1.667h1.512v0.804h-1.512v3.13c0,0.72,0.205,1.128,0.793,1.128c0.275,0,0.479-0.037,0.611-0.072
		l0.047,0.791c-0.203,0.084-0.527,0.145-0.936,0.145c-0.49,0-0.887-0.156-1.139-0.443c-0.299-0.313-0.408-0.828-0.408-1.512v-3.166
		H355.8v-0.804h0.898v-1.392L357.73,156.813z"/>
	<path d="M361.607,156.848c0.012,0.36-0.252,0.648-0.672,0.648c-0.371,0-0.637-0.288-0.637-0.648c0-0.371,0.277-0.659,0.66-0.659
		C361.355,156.188,361.607,156.477,361.607,156.848z M360.431,164.284v-5.805h1.055v5.805H360.431z"/>
	<path d="M368.492,161.334c0,2.146-1.486,3.082-2.891,3.082c-1.57,0-2.781-1.151-2.781-2.986c0-1.943,1.27-3.082,2.877-3.082
		C367.365,158.348,368.492,159.559,368.492,161.334z M363.886,161.394c0,1.271,0.732,2.231,1.764,2.231
		c1.008,0,1.762-0.947,1.762-2.256c0-0.982-0.49-2.23-1.738-2.23S363.886,160.291,363.886,161.394z"/>
	<path d="M369.828,160.051c0-0.6-0.014-1.092-0.049-1.571h0.936l0.061,0.96h0.023c0.287-0.553,0.959-1.092,1.918-1.092
		c0.805,0,2.051,0.479,2.051,2.471v3.466h-1.055v-3.347c0-0.936-0.348-1.715-1.344-1.715c-0.695,0-1.234,0.492-1.414,1.08
		c-0.049,0.131-0.072,0.312-0.072,0.491v3.49h-1.055V160.051z"/>
	<path d="M376.343,163.205c0.311,0.203,0.863,0.42,1.391,0.42c0.768,0,1.127-0.385,1.127-0.863c0-0.504-0.299-0.78-1.078-1.068
		c-1.045-0.371-1.535-0.947-1.535-1.643c0-0.936,0.756-1.703,2.002-1.703c0.588,0,1.104,0.168,1.428,0.359l-0.264,0.768
		c-0.229-0.144-0.648-0.336-1.188-0.336c-0.623,0-0.971,0.36-0.971,0.792c0,0.479,0.348,0.695,1.102,0.983
		c1.008,0.384,1.523,0.888,1.523,1.751c0,1.02-0.791,1.739-2.17,1.739c-0.637,0-1.223-0.156-1.631-0.396L376.343,163.205z"/>
</g>
<line fill="none" stroke="#878787" stroke-miterlimit="10" x1="289.833" y1="121.028" x2="440.166" y2="121.028"/>
<g>
	<path d="M70.888,261.428c0,5.784-4.689,10.473-10.474,10.473H31.919c-5.785,0-10.474-4.688-10.474-10.473v-69.912
		c0-5.785,4.689-10.475,10.474-10.475h28.495c5.785,0,10.474,4.689,10.474,10.475V261.428z"/>
	<path fill="#E9F5F9" d="M68.245,262.992c0,2.238-1.814,4.052-4.052,4.052H28.139c-2.237,0-4.051-1.813-4.051-4.052v-73.043
		c0-2.238,1.814-4.051,4.051-4.051h36.054c2.238,0,4.052,1.813,4.052,4.051V262.992z"/>
	<path fill="#0093BA" d="M50.464,198.218c0,1.034-0.838,1.872-1.873,1.872h-4.85c-1.034,0-1.872-0.838-1.872-1.872v-4.85
		c0-1.034,0.838-1.873,1.872-1.873h4.85c1.035,0,1.873,0.839,1.873,1.873V198.218z"/>
	<path fill="#0093BA" d="M63.733,228.067c0,1.034-0.838,1.873-1.873,1.873h-4.85c-1.034,0-1.872-0.839-1.872-1.873v-4.85
		c0-1.034,0.838-1.872,1.872-1.872h4.85c1.035,0,1.873,0.838,1.873,1.872V228.067z"/>
	<path fill="#5F368C" d="M37.417,198.218c0,1.034-0.838,1.872-1.873,1.872h-4.849c-1.035,0-1.873-0.838-1.873-1.872v-4.85
		c0-1.034,0.838-1.873,1.873-1.873h4.849c1.035,0,1.873,0.839,1.873,1.873V198.218z"/>
	<path fill="#34A936" d="M63.733,198.218c0,1.034-0.838,1.872-1.873,1.872h-4.85c-1.034,0-1.872-0.838-1.872-1.872v-4.85
		c0-1.034,0.838-1.873,1.872-1.873h4.85c1.035,0,1.873,0.839,1.873,1.873V198.218z"/>
	<path fill="#34A936" d="M50.464,228.067c0,1.034-0.838,1.873-1.873,1.873h-4.85c-1.034,0-1.872-0.839-1.872-1.873v-4.85
		c0-1.034,0.838-1.872,1.872-1.872h4.85c1.035,0,1.873,0.838,1.873,1.872V228.067z"/>
	<path fill="#B81818" d="M50.464,213.142c0,1.034-0.838,1.874-1.873,1.874h-4.85c-1.034,0-1.872-0.84-1.872-1.874v-4.848
		c0-1.034,0.838-1.874,1.872-1.874h4.85c1.035,0,1.873,0.84,1.873,1.874V213.142z"/>
	<path fill="#096EB3" d="M37.417,213.142c0,1.034-0.838,1.874-1.873,1.874h-4.849c-1.035,0-1.873-0.84-1.873-1.874v-4.848
		c0-1.034,0.838-1.874,1.873-1.874h4.849c1.035,0,1.873,0.84,1.873,1.874V213.142z"/>
	<path fill="#BCB20A" d="M63.733,213.142c0,1.034-0.838,1.874-1.873,1.874h-4.85c-1.034,0-1.872-0.84-1.872-1.874v-4.848
		c0-1.034,0.838-1.874,1.872-1.874h4.85c1.035,0,1.873,0.84,1.873,1.874V213.142z"/>
	<path fill="#BCB20A" d="M37.417,228.067c0,1.034-0.838,1.873-1.873,1.873h-4.849c-1.035,0-1.873-0.839-1.873-1.873v-4.85
		c0-1.034,0.838-1.872,1.873-1.872h4.849c1.035,0,1.873,0.838,1.873,1.872V228.067z"/>
	<path fill="#636A6D" d="M63.733,259.725c0-1.662-1.348-3.011-3.011-3.011H31.834c-1.663,0-3.011,1.349-3.011,3.011l0,0
		c0,1.663,1.348,3.012,3.011,3.012h28.888C62.385,262.736,63.733,261.388,63.733,259.725L63.733,259.725z"/>
</g>
<g>
	<path d="M344.887,260.601c0,5.784-4.689,10.473-10.475,10.473h-28.494c-5.785,0-10.475-4.688-10.475-10.473v-69.912
		c0-5.785,4.689-10.475,10.475-10.475h28.494c5.785,0,10.475,4.689,10.475,10.475V260.601z"/>
	<path fill="#E9F5F9" d="M342.245,262.165c0,2.238-1.814,4.052-4.053,4.052h-36.055c-2.236,0-4.051-1.813-4.051-4.052v-73.043
		c0-2.238,1.814-4.051,4.051-4.051h36.055c2.238,0,4.053,1.813,4.053,4.051V262.165z"/>
	<path fill="#0093BA" d="M324.463,197.391c0,1.034-0.839,1.872-1.873,1.872h-4.85c-1.034,0-1.873-0.838-1.873-1.872v-4.85
		c0-1.034,0.839-1.873,1.873-1.873h4.85c1.034,0,1.873,0.839,1.873,1.873V197.391z"/>
	<path fill="#0093BA" d="M337.732,227.24c0,1.034-0.839,1.873-1.873,1.873h-4.85c-1.034,0-1.872-0.839-1.872-1.873v-4.85
		c0-1.034,0.838-1.872,1.872-1.872h4.85c1.034,0,1.873,0.838,1.873,1.872V227.24z"/>
	<path fill="#5F368C" d="M311.417,197.391c0,1.034-0.838,1.872-1.873,1.872h-4.849c-1.034,0-1.873-0.838-1.873-1.872v-4.85
		c0-1.034,0.839-1.873,1.873-1.873h4.849c1.035,0,1.873,0.839,1.873,1.873V197.391z"/>
	<path fill="#34A936" d="M337.732,197.391c0,1.034-0.839,1.872-1.873,1.872h-4.85c-1.034,0-1.872-0.838-1.872-1.872v-4.85
		c0-1.034,0.838-1.873,1.872-1.873h4.85c1.034,0,1.873,0.839,1.873,1.873V197.391z"/>
	<path fill="#34A936" d="M324.463,227.24c0,1.034-0.839,1.873-1.873,1.873h-4.85c-1.034,0-1.873-0.839-1.873-1.873v-4.85
		c0-1.034,0.839-1.872,1.873-1.872h4.85c1.034,0,1.873,0.838,1.873,1.872V227.24z"/>
	<path fill="#B81818" d="M324.463,212.314c0,1.034-0.839,1.874-1.873,1.874h-4.85c-1.034,0-1.873-0.84-1.873-1.874v-4.848
		c0-1.034,0.839-1.874,1.873-1.874h4.85c1.034,0,1.873,0.84,1.873,1.874V212.314z"/>
	<path fill="#096EB3" d="M311.417,212.314c0,1.034-0.838,1.874-1.873,1.874h-4.849c-1.034,0-1.873-0.84-1.873-1.874v-4.848
		c0-1.034,0.839-1.874,1.873-1.874h4.849c1.035,0,1.873,0.84,1.873,1.874V212.314z"/>
	<path fill="#BCB20A" d="M337.732,212.314c0,1.034-0.839,1.874-1.873,1.874h-4.85c-1.034,0-1.872-0.84-1.872-1.874v-4.848
		c0-1.034,0.838-1.874,1.872-1.874h4.85c1.034,0,1.873,0.84,1.873,1.874V212.314z"/>
	<path fill="#BCB20A" d="M311.417,227.24c0,1.034-0.838,1.873-1.873,1.873h-4.849c-1.034,0-1.873-0.839-1.873-1.873v-4.85
		c0-1.034,0.839-1.872,1.873-1.872h4.849c1.035,0,1.873,0.838,1.873,1.872V227.24z"/>
	<path fill="#636A6D" d="M337.732,258.897c0-1.662-1.349-3.011-3.011-3.011h-28.889c-1.662,0-3.011,1.349-3.011,3.011l0,0
		c0,1.663,1.349,3.012,3.011,3.012h28.889C336.383,261.909,337.732,260.561,337.732,258.897L337.732,258.897z"/>
</g>
<g>
	<path d="M437.553,260.601c0,5.784-4.689,10.473-10.475,10.473h-28.494c-5.785,0-10.475-4.688-10.475-10.473v-69.912
		c0-5.785,4.689-10.475,10.475-10.475h28.494c5.785,0,10.475,4.689,10.475,10.475V260.601z"/>
	<path fill="#0093BA" d="M434.911,262.165c0,2.238-1.814,4.052-4.053,4.052h-36.055c-2.236,0-4.051-1.813-4.051-4.052v-73.043
		c0-2.238,1.814-4.051,4.051-4.051h36.055c2.238,0,4.053,1.813,4.053,4.051V262.165z"/>
	<path fill="#636A6D" d="M430.398,258.897c0-1.662-1.349-3.011-3.011-3.011h-28.889c-1.662,0-3.011,1.349-3.011,3.011l0,0
		c0,1.663,1.349,3.012,3.011,3.012h28.889C429.049,261.909,430.398,260.561,430.398,258.897L430.398,258.897z"/>
</g>
<g>
	<g>
		<path d="M69.624,55.948c0,1.466-1.188,2.654-2.654,2.654h-7.222c-1.466,0-2.654-1.188-2.654-2.654V38.229
			c0-1.466,1.188-2.654,2.654-2.654h7.222c1.466,0,2.654,1.188,2.654,2.654V55.948z"/>
		<path fill="#B81818" d="M68.955,56.345c0,0.566-0.46,1.027-1.027,1.027H58.79c-0.567,0-1.027-0.461-1.027-1.027V37.833
			c0-0.566,0.459-1.027,1.027-1.027h9.138c0.567,0,1.027,0.461,1.027,1.027V56.345z"/>
		<path fill="#636A6D" d="M67.811,55.517c0-0.421-0.342-0.764-0.763-0.764h-7.321c-0.422,0-0.763,0.343-0.763,0.764l0,0
			c0,0.421,0.341,0.763,0.763,0.763h7.321C67.469,56.279,67.811,55.938,67.811,55.517L67.811,55.517z"/>
	</g>
	<g>
		<g>
			<line fill="none" stroke="#000000" stroke-miterlimit="10" x1="39.806" y1="46.879" x2="52.869" y2="46.879"/>
			<g>
				<path d="M57.093,46.879c-1.988,0.737-4.454,1.996-5.983,3.329l1.205-3.329l-1.205-3.328
					C52.639,44.884,55.105,46.142,57.093,46.879z"/>
			</g>
		</g>
	</g>
	<g>
		<path d="M39.806,55.948c0,1.466-1.188,2.654-2.654,2.654H29.93c-1.466,0-2.654-1.188-2.654-2.654V38.229
			c0-1.466,1.188-2.654,2.654-2.654h7.222c1.466,0,2.654,1.188,2.654,2.654V55.948z"/>
		<path fill="#E9F5F9" d="M39.137,56.345c0,0.566-0.46,1.027-1.027,1.027h-9.138c-0.567,0-1.027-0.461-1.027-1.027V37.833
			c0-0.566,0.46-1.027,1.027-1.027h9.138c0.567,0,1.027,0.461,1.027,1.027V56.345z"/>
		<path fill="#0093BA" d="M34.63,39.929c0,0.262-0.212,0.475-0.475,0.475h-1.229c-0.261,0-0.474-0.213-0.474-0.475v-1.229
			c0-0.262,0.213-0.475,0.474-0.475h1.229c0.263,0,0.475,0.213,0.475,0.475V39.929z"/>
		<path fill="#0093BA" d="M37.993,47.493c0,0.263-0.212,0.475-0.474,0.475h-1.229c-0.262,0-0.474-0.212-0.474-0.475v-1.229
			c0-0.263,0.212-0.475,0.474-0.475h1.229c0.262,0,0.474,0.212,0.474,0.475V47.493z"/>
		<path fill="#5F368C" d="M31.323,39.929c0,0.262-0.212,0.475-0.475,0.475H29.62c-0.262,0-0.474-0.213-0.474-0.475v-1.229
			c0-0.262,0.212-0.475,0.474-0.475h1.229c0.262,0,0.475,0.213,0.475,0.475V39.929z"/>
		<path fill="#34A936" d="M37.993,39.929c0,0.262-0.212,0.475-0.474,0.475h-1.229c-0.262,0-0.474-0.213-0.474-0.475v-1.229
			c0-0.262,0.212-0.475,0.474-0.475h1.229c0.262,0,0.474,0.213,0.474,0.475V39.929z"/>
		<path fill="#34A936" d="M34.63,47.493c0,0.263-0.212,0.475-0.475,0.475h-1.229c-0.261,0-0.474-0.212-0.474-0.475v-1.229
			c0-0.263,0.213-0.475,0.474-0.475h1.229c0.263,0,0.475,0.212,0.475,0.475V47.493z"/>
		<path fill="#B81818" d="M34.63,43.711c0,0.262-0.212,0.475-0.475,0.475h-1.229c-0.261,0-0.474-0.213-0.474-0.475v-1.229
			c0-0.262,0.213-0.474,0.474-0.474h1.229c0.263,0,0.475,0.212,0.475,0.474V43.711z"/>
		<path fill="#096EB3" d="M31.323,43.711c0,0.262-0.212,0.475-0.475,0.475H29.62c-0.262,0-0.474-0.213-0.474-0.475v-1.229
			c0-0.262,0.212-0.474,0.474-0.474h1.229c0.262,0,0.475,0.212,0.475,0.474V43.711z"/>
		<path fill="#BCB20A" d="M37.993,43.711c0,0.262-0.212,0.475-0.474,0.475h-1.229c-0.262,0-0.474-0.213-0.474-0.475v-1.229
			c0-0.262,0.212-0.474,0.474-0.474h1.229c0.262,0,0.474,0.212,0.474,0.474V43.711z"/>
		<path fill="#BCB20A" d="M31.323,47.493c0,0.263-0.212,0.475-0.475,0.475H29.62c-0.262,0-0.474-0.212-0.474-0.475v-1.229
			c0-0.263,0.212-0.475,0.474-0.475h1.229c0.262,0,0.475,0.212,0.475,0.475V47.493z"/>
		<path fill="#636A6D" d="M37.993,55.517c0-0.421-0.342-0.764-0.763-0.764h-7.321c-0.422,0-0.763,0.343-0.763,0.764l0,0
			c0,0.421,0.341,0.763,0.763,0.763h7.321C37.651,56.279,37.993,55.938,37.993,55.517L37.993,55.517z"/>
	</g>
</g>
<g>
	<g>
		<path d="M82.957,81.531c0,1.466-1.188,2.654-2.654,2.654h-7.222c-1.466,0-2.654-1.188-2.654-2.654V63.813
			c0-1.466,1.188-2.654,2.654-2.654h7.222c1.466,0,2.654,1.188,2.654,2.654V81.531z"/>
		<path fill="#34A936" d="M82.288,81.928c0,0.566-0.46,1.027-1.027,1.027h-9.138c-0.567,0-1.027-0.461-1.027-1.027V63.416
			c0-0.566,0.459-1.027,1.027-1.027h9.138c0.567,0,1.027,0.461,1.027,1.027V81.928z"/>
		<path fill="#636A6D" d="M81.144,81.1c0-0.421-0.342-0.764-0.763-0.764h-7.321c-0.422,0-0.763,0.343-0.763,0.764l0,0
			c0,0.421,0.341,0.763,0.763,0.763h7.321C80.802,81.862,81.144,81.521,81.144,81.1L81.144,81.1z"/>
	</g>
	<g>
		<g>
			<line fill="none" stroke="#000000" stroke-miterlimit="10" x1="53.139" y1="72.462" x2="66.202" y2="72.462"/>
			<g>
				<path d="M70.426,72.462c-1.988,0.737-4.454,1.996-5.983,3.329l1.205-3.329l-1.205-3.328
					C65.972,70.467,68.438,71.725,70.426,72.462z"/>
			</g>
		</g>
	</g>
	<g>
		<path d="M53.139,81.531c0,1.466-1.188,2.654-2.654,2.654h-7.222c-1.466,0-2.654-1.188-2.654-2.654V63.813
			c0-1.466,1.188-2.654,2.654-2.654h7.222c1.466,0,2.654,1.188,2.654,2.654V81.531z"/>
		<path fill="#E9F5F9" d="M52.47,81.928c0,0.566-0.46,1.027-1.027,1.027h-9.138c-0.567,0-1.027-0.461-1.027-1.027V63.416
			c0-0.566,0.46-1.027,1.027-1.027h9.138c0.567,0,1.027,0.461,1.027,1.027V81.928z"/>
		<path fill="#0093BA" d="M47.963,65.512c0,0.262-0.212,0.475-0.475,0.475h-1.229c-0.261,0-0.474-0.213-0.474-0.475v-1.229
			c0-0.262,0.213-0.475,0.474-0.475h1.229c0.263,0,0.475,0.213,0.475,0.475V65.512z"/>
		<path fill="#0093BA" d="M51.326,73.076c0,0.263-0.212,0.475-0.474,0.475h-1.229c-0.262,0-0.474-0.212-0.474-0.475v-1.229
			c0-0.263,0.212-0.475,0.474-0.475h1.229c0.262,0,0.474,0.212,0.474,0.475V73.076z"/>
		<path fill="#5F368C" d="M44.656,65.512c0,0.262-0.212,0.475-0.475,0.475h-1.229c-0.262,0-0.474-0.213-0.474-0.475v-1.229
			c0-0.262,0.212-0.475,0.474-0.475h1.229c0.262,0,0.475,0.213,0.475,0.475V65.512z"/>
		<path fill="#34A936" d="M51.326,65.512c0,0.262-0.212,0.475-0.474,0.475h-1.229c-0.262,0-0.474-0.213-0.474-0.475v-1.229
			c0-0.262,0.212-0.475,0.474-0.475h1.229c0.262,0,0.474,0.213,0.474,0.475V65.512z"/>
		<path fill="#34A936" d="M47.963,73.076c0,0.263-0.212,0.475-0.475,0.475h-1.229c-0.261,0-0.474-0.212-0.474-0.475v-1.229
			c0-0.263,0.213-0.475,0.474-0.475h1.229c0.263,0,0.475,0.212,0.475,0.475V73.076z"/>
		<path fill="#B81818" d="M47.963,69.294c0,0.262-0.212,0.475-0.475,0.475h-1.229c-0.261,0-0.474-0.213-0.474-0.475v-1.229
			c0-0.262,0.213-0.474,0.474-0.474h1.229c0.263,0,0.475,0.212,0.475,0.474V69.294z"/>
		<path fill="#096EB3" d="M44.656,69.294c0,0.262-0.212,0.475-0.475,0.475h-1.229c-0.262,0-0.474-0.213-0.474-0.475v-1.229
			c0-0.262,0.212-0.474,0.474-0.474h1.229c0.262,0,0.475,0.212,0.475,0.474V69.294z"/>
		<path fill="#BCB20A" d="M51.326,69.294c0,0.262-0.212,0.475-0.474,0.475h-1.229c-0.262,0-0.474-0.213-0.474-0.475v-1.229
			c0-0.262,0.212-0.474,0.474-0.474h1.229c0.262,0,0.474,0.212,0.474,0.474V69.294z"/>
		<path fill="#BCB20A" d="M44.656,73.076c0,0.263-0.212,0.475-0.475,0.475h-1.229c-0.262,0-0.474-0.212-0.474-0.475v-1.229
			c0-0.263,0.212-0.475,0.474-0.475h1.229c0.262,0,0.475,0.212,0.475,0.475V73.076z"/>
		<path fill="#636A6D" d="M51.326,81.1c0-0.421-0.342-0.764-0.763-0.764h-7.321c-0.422,0-0.763,0.343-0.763,0.764l0,0
			c0,0.421,0.341,0.763,0.763,0.763h7.321C50.984,81.862,51.326,81.521,51.326,81.1L51.326,81.1z"/>
	</g>
</g>
<g>
	<path d="M105.37,49.435l-1.011,1.011l0.917,0.917l-0.487,0.487l-0.917-0.917l-1.898,1.898c-0.436,0.437-0.56,0.808-0.204,1.163
		c0.167,0.168,0.313,0.27,0.415,0.328l-0.45,0.509c-0.175-0.073-0.408-0.233-0.655-0.479c-0.298-0.299-0.444-0.634-0.422-0.961
		c0.007-0.371,0.255-0.748,0.669-1.162l1.92-1.921l-0.546-0.546l0.487-0.486l0.546,0.545l0.844-0.844L105.37,49.435z"/>
	<path d="M104.896,53.179c0.414-0.414,0.763-0.778,1.068-1.127l0.56,0.56l-0.669,0.713l0.03,0.029
		c0.632-0.313,1.315-0.226,1.745,0.203c0.073,0.073,0.116,0.131,0.16,0.204l-0.604,0.604c-0.051-0.08-0.109-0.153-0.196-0.239
		c-0.451-0.451-1.113-0.43-1.68-0.037c-0.102,0.072-0.218,0.16-0.328,0.27l-1.876,1.875l-0.632-0.632L104.896,53.179z"/>
	<path d="M106.763,59.89l0.393-0.494l-0.021-0.021c-0.473,0.08-1.098-0.052-1.6-0.554c-0.712-0.712-0.574-1.578-0.065-2.086
		c0.851-0.852,2.073-0.561,3.426,0.807l0.072-0.072c0.291-0.291,0.734-0.895,0.014-1.614c-0.327-0.327-0.77-0.567-1.178-0.654
		l0.276-0.568c0.48,0.103,1.025,0.4,1.469,0.844c1.077,1.077,0.604,2.073-0.101,2.778l-1.316,1.316
		c-0.306,0.305-0.589,0.617-0.786,0.901L106.763,59.89z M108.465,58c-0.684-0.713-1.6-1.383-2.283-0.699
		c-0.415,0.415-0.334,0.887-0.007,1.215c0.458,0.457,1.04,0.458,1.439,0.262c0.087-0.044,0.175-0.102,0.24-0.168L108.465,58z"/>
	<path d="M108.318,61.445l3.52-3.52l0.64,0.639l-3.52,3.52L108.318,61.445z M113.539,57.648c-0.211,0.227-0.545,0.24-0.799-0.015
		c-0.226-0.226-0.212-0.56,0.006-0.778c0.226-0.226,0.568-0.232,0.801,0C113.787,57.096,113.765,57.423,113.539,57.648z"/>
	<path d="M112.586,60.578c0.363-0.363,0.654-0.669,0.923-0.981l0.567,0.567l-0.545,0.617l0.015,0.016
		c0.509-0.16,1.244-0.08,1.825,0.502c0.487,0.486,0.953,1.533-0.254,2.74l-2.102,2.102l-0.64-0.639l2.029-2.029
		c0.567-0.567,0.829-1.251,0.226-1.854c-0.422-0.422-1.047-0.45-1.513-0.204c-0.108,0.051-0.232,0.146-0.341,0.255l-2.116,2.116
		l-0.64-0.64L112.586,60.578z"/>
</g>
<g>
	<g>
		<line fill="none" stroke="#000000" stroke-miterlimit="10" x1="287.654" y1="246.879" x2="262.25" y2="221.475"/>
		<g>
			<path d="M259.262,218.487c1.927,0.884,4.562,1.738,6.585,1.877l-3.205,1.502l-1.503,3.205
				C261.001,223.048,260.147,220.414,259.262,218.487z"/>
		</g>
	</g>
</g>
<g>
	<path d="M261.386,214.281l3.52-3.52l0.641,0.639l-3.52,3.52L261.386,214.281z M266.608,210.485c-0.212,0.226-0.546,0.239-0.8-0.016
		c-0.226-0.226-0.211-0.56,0.007-0.777c0.226-0.226,0.567-0.233,0.801-0.001C266.855,209.932,266.833,210.26,266.608,210.485z"/>
	<path d="M265.655,213.414c0.363-0.363,0.654-0.669,0.923-0.981l0.561,0.56l-0.539,0.596l0.023,0.023
		c0.529-0.139,1.17-0.124,1.752,0.457c0.479,0.48,0.553,1.135,0.291,1.703l0.014,0.014c0.307-0.088,0.597-0.102,0.852-0.065
		c0.371,0.051,0.69,0.196,1.025,0.53c0.465,0.467,0.851,1.462-0.371,2.684l-2.072,2.072l-0.626-0.625l1.993-1.992
		c0.676-0.677,0.836-1.331,0.32-1.848c-0.364-0.363-0.917-0.378-1.339-0.174c-0.116,0.058-0.255,0.152-0.37,0.27l-2.175,2.174
		l-0.626-0.626l2.109-2.108c0.56-0.561,0.72-1.215,0.232-1.702c-0.4-0.399-1.012-0.37-1.433-0.152
		c-0.131,0.059-0.255,0.153-0.363,0.262l-2.124,2.124l-0.625-0.626L265.655,213.414z"/>
	<path d="M271.52,219.673c0.45-0.45,0.8-0.829,1.12-1.179l0.574,0.574l-0.574,0.634l0.014,0.015c0.691-0.168,1.36-0.008,1.935,0.566
		c0.851,0.852,0.771,2.211-0.298,3.28c-1.266,1.265-2.662,1.12-3.49,0.29c-0.466-0.465-0.67-1.076-0.531-1.637l-0.014-0.014
		l-1.914,1.912l-0.632-0.632L271.52,219.673z M271.214,221.243c-0.094,0.095-0.168,0.196-0.232,0.291
		c-0.328,0.56-0.247,1.251,0.211,1.708c0.676,0.678,1.621,0.518,2.429-0.29c0.706-0.706,0.938-1.681,0.263-2.356
		c-0.438-0.436-1.157-0.53-1.762-0.174c-0.102,0.059-0.217,0.131-0.305,0.218L271.214,221.243z"/>
	<path d="M275.707,223.758c0.414-0.414,0.764-0.777,1.068-1.127l0.561,0.56l-0.668,0.712l0.029,0.029
		c0.631-0.313,1.314-0.225,1.744,0.204c0.072,0.073,0.116,0.131,0.16,0.204l-0.604,0.604c-0.051-0.08-0.109-0.153-0.196-0.24
		c-0.45-0.451-1.112-0.43-1.681-0.037c-0.102,0.073-0.217,0.16-0.326,0.27l-1.877,1.877l-0.633-0.633L275.707,223.758z"/>
	<path d="M280.564,229.879c-1.303,1.303-2.771,0.968-3.622,0.117c-0.952-0.953-0.989-2.386,0.123-3.498
		c1.179-1.179,2.64-1.098,3.614-0.124C281.691,227.385,281.639,228.804,280.564,229.879z M277.734,227.123
		c-0.77,0.771-0.908,1.797-0.283,2.422c0.611,0.611,1.643,0.494,2.436-0.299c0.598-0.596,1.055-1.65,0.299-2.406
		S278.404,226.454,277.734,227.123z"/>
	<path d="M283.296,229.15l-1.287,2.669c-0.204,0.437-0.4,0.821-0.619,1.185l0.022,0.022c0.37-0.21,0.764-0.399,1.2-0.604
		l2.661-1.294l0.669,0.669l-4.9,2.138l-0.611-0.611l2.182-4.857L283.296,229.15z"/>
	<path d="M284.953,234.559c-0.852,0.881-0.655,1.789-0.016,2.43c0.459,0.458,0.814,0.654,1.156,0.793l-0.349,0.566
		c-0.327-0.123-0.829-0.393-1.389-0.952c-1.083-1.083-1.019-2.444,0.044-3.505c1.062-1.063,2.523-1.273,3.549-0.248
		c1.148,1.149,0.443,2.466-0.203,3.113c-0.132,0.131-0.248,0.218-0.32,0.275L284.953,234.559z M287.287,235.977
		c0.414-0.398,0.872-1.206,0.152-1.926c-0.647-0.647-1.527-0.336-2.021,0.057L287.287,235.977z"/>
</g>
<g>
	<g>
		<line fill="none" stroke="#000000" stroke-miterlimit="10" x1="261.388" y1="188.274" x2="286.792" y2="213.679"/>
		<g>
			<path d="M289.78,216.666c-1.927-0.884-4.562-1.738-6.585-1.877l3.205-1.502l1.503-3.205
				C288.041,212.105,288.895,214.739,289.78,216.666z"/>
		</g>
	</g>
</g>
<g>
	<path d="M267.667,183.482c0.45-0.451,0.8-0.83,1.119-1.179l0.574,0.575l-0.574,0.633l0.015,0.014
		c0.69-0.167,1.36-0.008,1.935,0.567c0.852,0.851,0.771,2.211-0.299,3.28c-1.265,1.265-2.66,1.119-3.49,0.29
		c-0.465-0.466-0.669-1.076-0.53-1.637l-0.015-0.015l-1.913,1.913l-0.632-0.632L267.667,183.482z M267.361,185.053
		c-0.094,0.094-0.167,0.196-0.232,0.291c-0.327,0.56-0.246,1.25,0.211,1.709c0.677,0.676,1.622,0.517,2.43-0.291
		c0.705-0.705,0.938-1.681,0.262-2.356c-0.437-0.437-1.156-0.53-1.76-0.175c-0.103,0.059-0.219,0.131-0.307,0.219L267.361,185.053z"
		/>
	<path d="M271.854,187.566c0.414-0.414,0.763-0.778,1.068-1.127l0.56,0.561l-0.668,0.711l0.029,0.029
		c0.632-0.312,1.315-0.225,1.744,0.205c0.073,0.072,0.117,0.131,0.16,0.203l-0.604,0.604c-0.051-0.08-0.109-0.152-0.196-0.24
		c-0.45-0.451-1.112-0.429-1.68-0.036c-0.103,0.073-0.218,0.159-0.327,0.269l-1.877,1.877l-0.632-0.633L271.854,187.566z"/>
	<path d="M273.736,191.006c-0.851,0.879-0.654,1.788-0.014,2.428c0.457,0.459,0.814,0.654,1.155,0.793l-0.349,0.567
		c-0.328-0.124-0.829-0.393-1.389-0.952c-1.084-1.084-1.019-2.444,0.043-3.506c1.063-1.063,2.523-1.272,3.549-0.246
		c1.148,1.148,0.443,2.465-0.203,3.111c-0.131,0.131-0.248,0.219-0.32,0.276L273.736,191.006z M276.071,192.423
		c0.414-0.399,0.872-1.206,0.151-1.927c-0.646-0.646-1.525-0.334-2.02,0.059L276.071,192.423z"/>
	<path d="M283.581,193.811l-4.255,4.254c-0.312,0.313-0.66,0.676-0.879,0.938l-0.574-0.575l0.582-0.639l-0.016-0.016
		c-0.588,0.197-1.316,0.066-1.891-0.509c-0.851-0.851-0.785-2.226,0.283-3.294c1.164-1.178,2.611-1.171,3.469-0.313
		c0.539,0.538,0.647,1.156,0.525,1.6l0.014,0.014l2.102-2.102L283.581,193.811z M279.865,196.246c0.08-0.08,0.182-0.195,0.24-0.297
		c0.313-0.503,0.297-1.186-0.183-1.666c-0.661-0.662-1.636-0.473-2.414,0.306c-0.712,0.712-0.952,1.65-0.261,2.341
		c0.429,0.43,1.105,0.539,1.701,0.175c0.108-0.065,0.203-0.146,0.305-0.247L279.865,196.246z"/>
	<path d="M279.477,200.033l3.52-3.52l0.64,0.641l-3.52,3.52L279.477,200.033z M284.699,196.238
		c-0.211,0.225-0.545,0.238-0.801-0.016c-0.225-0.226-0.211-0.56,0.008-0.777c0.226-0.227,0.568-0.234,0.801-0.002
		C284.947,195.684,284.924,196.012,284.699,196.238z"/>
	<path d="M283.818,204.111c-0.255-0.079-0.742-0.334-1.215-0.807c-1.062-1.062-1.033-2.473,0.044-3.549
		c1.083-1.084,2.61-1.127,3.76,0.022c0.378,0.378,0.618,0.807,0.705,1.068l-0.64,0.349c-0.066-0.238-0.227-0.559-0.574-0.908
		c-0.809-0.807-1.84-0.647-2.574,0.088c-0.814,0.813-0.793,1.839-0.096,2.537c0.365,0.363,0.699,0.51,0.961,0.611L283.818,204.111z"
		/>
	<path d="M289.83,201.324l-1.011,1.012l0.917,0.916l-0.487,0.487l-0.917-0.917l-1.898,1.898c-0.436,0.437-0.56,0.808-0.203,1.164
		c0.168,0.168,0.313,0.269,0.414,0.328l-0.449,0.508c-0.176-0.072-0.408-0.232-0.655-0.479c-0.298-0.298-0.443-0.633-0.422-0.96
		c0.007-0.371,0.255-0.749,0.669-1.163l1.92-1.921l-0.545-0.545l0.486-0.486l0.546,0.545l0.844-0.844L289.83,201.324z"/>
</g>
<g>
	<g>
		<line fill="none" stroke="#000000" stroke-miterlimit="10" x1="92.388" y1="219.059" x2="117.792" y2="193.655"/>
		<g>
			<path d="M120.779,190.668c-0.884,1.927-1.738,4.562-1.877,6.585l-1.502-3.206l-3.205-1.502
				C116.219,192.406,118.853,191.553,120.779,190.668z"/>
		</g>
	</g>
</g>
<g>
	<path d="M93.773,202.283l1.011,1.011l0.917-0.917l0.486,0.487l-0.916,0.917l1.898,1.898c0.436,0.436,0.807,0.559,1.163,0.203
		c0.167-0.168,0.269-0.313,0.327-0.414l0.51,0.449c-0.072,0.176-0.233,0.408-0.48,0.655c-0.299,0.298-0.633,0.443-0.959,0.422
		c-0.371-0.007-0.75-0.255-1.164-0.669l-1.92-1.92l-0.546,0.545l-0.487-0.486l0.546-0.546l-0.844-0.844L93.773,202.283z"/>
	<path d="M98.608,203.222c0.88,0.851,1.788,0.655,2.429,0.015c0.458-0.458,0.654-0.814,0.793-1.156l0.566,0.35
		c-0.123,0.327-0.393,0.828-0.952,1.389c-1.083,1.084-2.444,1.018-3.505-0.043c-1.063-1.063-1.272-2.524-0.247-3.55
		c1.148-1.148,2.465-0.443,3.112,0.204c0.131,0.131,0.218,0.247,0.276,0.319L98.608,203.222z M100.025,200.887
		c-0.398-0.414-1.206-0.871-1.926-0.151c-0.646,0.647-0.335,1.526,0.058,2.021L100.025,200.887z"/>
	<path d="M102.795,201.013c0.313-0.065,0.778-0.269,1.099-0.589c0.466-0.465,0.451-0.916,0.16-1.207
		c-0.306-0.306-0.655-0.291-1.302,0.008c-0.857,0.406-1.506,0.355-1.928-0.066c-0.566-0.566-0.574-1.49,0.182-2.246
		c0.357-0.357,0.771-0.568,1.084-0.647l0.306,0.625c-0.226,0.052-0.597,0.189-0.923,0.517c-0.379,0.378-0.371,0.807-0.109,1.068
		c0.29,0.291,0.633,0.211,1.265-0.072c0.845-0.378,1.462-0.385,1.985,0.139c0.617,0.617,0.574,1.533-0.262,2.37
		c-0.385,0.386-0.836,0.647-1.229,0.749L102.795,201.013z"/>
	<path d="M102.655,193.4l1.011,1.012l0.916-0.916l0.487,0.486l-0.916,0.916l1.898,1.898c0.437,0.436,0.808,0.561,1.163,0.203
		c0.168-0.167,0.27-0.313,0.328-0.414l0.508,0.451c-0.072,0.174-0.232,0.406-0.479,0.654c-0.298,0.299-0.633,0.443-0.96,0.422
		c-0.371-0.008-0.749-0.255-1.163-0.669l-1.921-1.921l-0.545,0.546l-0.486-0.487l0.545-0.545l-0.844-0.844L102.655,193.4z"/>
</g>
</svg>
